<?xml version="1.0" encoding="UTF-8"?>
<!DOCTYPE svg PUBLIC "-//W3C//DTD SVG 1.1//EN" "http://www.w3.org/Graphics/SVG/1.1/DTD/svg11.dtd">
<svg xmlns="http://www.w3.org/2000/svg" version="1.1" width="296px" height="296px" style="shape-rendering:geometricPrecision; text-rendering:geometricPrecision; image-rendering:optimizeQuality; fill-rule:evenodd; clip-rule:evenodd" xmlns:xlink="http://www.w3.org/1999/xlink">
<g><path style="opacity:0.982" fill="#ebebeb" d="M 130.5,-0.5 C 141.833,-0.5 153.167,-0.5 164.5,-0.5C 238.5,12.8333 282.167,56.5 295.5,130.5C 295.5,141.833 295.5,153.167 295.5,164.5C 282.167,238.5 238.5,282.167 164.5,295.5C 153.167,295.5 141.833,295.5 130.5,295.5C 56.5,282.167 12.8333,238.5 -0.5,164.5C -0.5,153.167 -0.5,141.833 -0.5,130.5C 12.8333,56.5 56.5,12.8333 130.5,-0.5 Z"/></g>
<g><path style="opacity:1" fill="#292526" d="M 156.5,26.5 C 156.842,27.3382 157.508,27.6716 158.5,27.5C 158.665,31.1817 158.499,34.8484 158,38.5C 151.667,31.1667 145.333,23.8333 139,16.5C 138.333,22.8333 138.333,29.1667 139,35.5C 140.171,36.8932 141.671,37.7265 143.5,38C 137.161,38.7235 130.828,39.0568 124.5,39C 120.922,35.3945 116.922,32.5612 112.5,30.5C 113.016,33.8988 113.85,37.2321 115,40.5C 115.75,41.1258 116.584,41.6258 117.5,42C 114.143,43.0105 110.809,43.6772 107.5,44C 108.059,43.2753 108.392,42.4419 108.5,41.5C 106.667,34.1667 104.833,26.8333 103,19.5C 101.933,18.8095 100.766,18.3095 99.5,18C 104.268,16.9752 108.934,15.6418 113.5,14C 123.119,12.6099 126.619,16.4432 124,25.5C 123.167,26.3333 122.333,27.1667 121.5,28C 125.132,30.6298 128.465,33.6298 131.5,37C 133.701,37.8249 135.534,37.3249 137,35.5C 137.667,28.1667 137.667,20.8333 137,13.5C 135.829,12.1068 134.329,11.2735 132.5,11C 136.211,10.1747 139.878,10.3414 143.5,11.5C 147.512,16.8403 151.845,21.8403 156.5,26.5 Z"/></g>
<g><path style="opacity:1" fill="#2d292a" d="M 167.5,12.5 C 174.464,12.3845 181.464,13.5512 188.5,16C 189.76,17.8138 189.76,19.6471 188.5,21.5C 185.842,16.8377 181.842,14.8377 176.5,15.5C 175.886,19.1352 175.552,22.8019 175.5,26.5C 178.808,27.0262 180.974,25.6928 182,22.5C 181.989,26.2249 181.323,29.8916 180,33.5C 179.459,30.791 177.959,28.791 175.5,27.5C 173.315,31.3432 172.649,35.3432 173.5,39.5C 178.706,41.4572 183.206,40.4572 187,36.5C 186.563,38.7567 186.063,41.09 185.5,43.5C 178.117,42.3258 170.784,40.8258 163.5,39C 164.333,38.1667 165.167,37.3333 166,36.5C 167.13,29.257 168.63,22.0903 170.5,15C 170.252,13.2509 169.252,12.4176 167.5,12.5 Z"/></g>
<g><path style="opacity:1" fill="#4d4a4b" d="M 158.5,27.5 C 157.508,27.6716 156.842,27.3382 156.5,26.5C 156.666,21.8215 156.499,17.1548 156,12.5C 155.5,12 155,11.5 154.5,11C 156.167,10.3333 157.833,10.3333 159.5,11C 158.527,16.4066 158.193,21.9066 158.5,27.5 Z"/></g>
<g><path style="opacity:1" fill="#e0e0e0" d="M 109.5,16.5 C 118.188,15.7544 120.855,19.2544 117.5,27C 115.564,27.813 113.564,28.313 111.5,28.5C 110.514,24.5568 109.848,20.5568 109.5,16.5 Z"/></g>
<g><path style="opacity:1" fill="#2b2728" d="M 211.5,55.5 C 208.06,53.9451 204.727,52.1118 201.5,50C 207.599,42.9929 212.599,35.1595 216.5,26.5C 219.039,28.2003 221.705,29.7003 224.5,31C 223.234,31.3095 222.067,31.8095 221,32.5C 217.919,38.3312 214.585,43.9979 211,49.5C 210.322,51.5976 210.489,53.5976 211.5,55.5 Z"/></g>
<g><path style="opacity:1" fill="#2e2a2b" d="M 88.5,22.5 C 90.952,23.7359 92.1187,25.7359 92,28.5C 87.2893,25.6081 83.1226,26.2747 79.5,30.5C 80.7693,34.0536 82.7693,37.0536 85.5,39.5C 86.086,39.2907 86.586,38.9574 87,38.5C 87.4217,35.7644 87.4217,33.0977 87,30.5C 89.9337,35.0337 92.267,39.7004 94,44.5C 92.0287,40.8136 89.1954,39.8136 85.5,41.5C 86.6667,43.8333 87.8333,46.1667 89,48.5C 93.8733,51.2532 97.54,49.9199 100,44.5C 100.732,38.3722 101.899,38.7056 103.5,45.5C 103.167,46.1667 102.833,46.8333 102.5,47.5C 95.8104,51.0153 89.1438,54.182 82.5,57C 84.2112,55.8668 84.7112,54.3668 84,52.5C 80.7453,46.9916 77.7453,41.325 75,35.5C 73.5093,33.9963 71.676,33.1629 69.5,33C 76.2173,29.9795 82.5506,26.4795 88.5,22.5 Z"/></g>
<g><path style="opacity:1" fill="#302d2d" d="M 211.5,55.5 C 213.455,56.3235 215.455,56.4901 217.5,56C 222,50.8333 226.5,45.6667 231,40.5C 231.179,38.5758 231.346,36.9091 231.5,35.5C 236.979,40.7352 242.646,45.7352 248.5,50.5C 247.52,51.9814 246.353,53.3147 245,54.5C 244.933,49.3615 242.6,45.6949 238,43.5C 235.317,46.0159 232.817,48.6826 230.5,51.5C 230.709,52.086 231.043,52.586 231.5,53C 234.236,53.4217 236.902,53.4217 239.5,53C 236.315,55.884 233.482,59.0507 231,62.5C 232.927,52.733 230.593,51.3997 224,58.5C 223.027,60.3921 222.36,62.3921 222,64.5C 218.308,61.6352 214.808,58.6352 211.5,55.5 Z"/></g>
<g><path style="opacity:1" fill="#292626" d="M 62.5,39.5 C 67.0581,45.9112 71.8914,52.2445 77,58.5C 77.3439,66.4873 73.5106,69.9873 65.5,69C 62.4112,64.9419 63.4112,63.2753 68.5,64C 69.3366,65.0113 69.67,66.1779 69.5,67.5C 72.6802,67.8238 73.8469,66.4904 73,63.5C 68.2844,57.9062 63.451,52.4062 58.5,47C 57.5,46.6667 56.5,46.3333 55.5,46C 57.7293,43.5997 60.0626,41.433 62.5,39.5 Z"/></g>
<g><path style="opacity:1" fill="#312b2c" d="M 226.5,223.5 C 226.5,222.833 226.167,222.5 225.5,222.5C 225.461,221.417 225.127,220.417 224.5,219.5C 225.95,218.15 226.617,216.484 226.5,214.5C 225.5,214.5 224.5,214.5 223.5,214.5C 223.5,215.5 223.5,216.5 223.5,217.5C 222.5,217.5 221.5,217.5 220.5,217.5C 219.952,219.532 218.619,220.532 216.5,220.5C 217.512,218.9 217.012,217.566 215,216.5C 213.812,217.563 213.312,218.897 213.5,220.5C 211.5,220.5 210.5,221.5 210.5,223.5C 207.629,222.014 206.295,223.014 206.5,226.5C 203.167,225.167 202.167,226.167 203.5,229.5C 202.5,229.5 201.5,229.5 200.5,229.5C 200.672,228.508 200.338,227.842 199.5,227.5C 201.403,223.697 204.403,221.031 208.5,219.5C 209.833,218.5 209.833,217.5 208.5,216.5C 176.838,206.103 144.505,203.603 111.5,209C 104.714,210.595 98.0471,212.595 91.5,215C 90.4464,216.388 90.2797,217.888 91,219.5C 93.167,220.488 95.0003,221.821 96.5,223.5C 95.8333,224.167 95.1667,224.833 94.5,225.5C 94.1583,226.338 93.4916,226.672 92.5,226.5C 91.2921,225.766 89.9587,225.433 88.5,225.5C 88.762,224.022 88.4287,222.689 87.5,221.5C 85.8888,222.32 85.2222,223.654 85.5,225.5C 81.9063,224.439 81.7396,223.105 85,221.5C 85.4828,220.552 85.6495,219.552 85.5,218.5C 84.448,218.351 83.448,218.517 82.5,219C 80.8258,220.506 79.8258,222.339 79.5,224.5C 78.596,223.791 78.2627,222.791 78.5,221.5C 79.8333,220.5 79.8333,219.5 78.5,218.5C 80.3464,218.778 81.6798,218.111 82.5,216.5C 81.0416,215.218 79.7082,215.218 78.5,216.5C 77.8333,216.5 77.5,216.167 77.5,215.5C 78.2341,214.292 78.5674,212.959 78.5,211.5C 77.448,211.649 76.448,211.483 75.5,211C 76.5981,210.23 76.5981,209.397 75.5,208.5C 74.5,208.5 73.5,208.5 72.5,208.5C 73.9536,205.6 72.9536,204.267 69.5,204.5C 69.3059,202.088 67.9726,201.088 65.5,201.5C 65.9081,200.357 66.5748,199.357 67.5,198.5C 68.4803,199.981 69.647,201.315 71,202.5C 71.1667,201.833 71.3333,201.167 71.5,200.5C 70.5786,198.87 69.7453,197.203 69,195.5C 67.9887,194.663 66.8221,194.33 65.5,194.5C 65.3059,192.088 63.9726,191.088 61.5,191.5C 63.0024,189.171 62.3357,187.837 59.5,187.5C 59.5,186.833 59.5,186.167 59.5,185.5C 59.8333,185.5 60.1667,185.5 60.5,185.5C 63.2301,182.949 62.5634,181.616 58.5,181.5C 59.9361,178.43 58.9361,177.263 55.5,178C 54.4019,178.77 54.4019,179.603 55.5,180.5C 55.1667,180.5 54.8333,180.5 54.5,180.5C 53.5,180.5 52.5,180.5 51.5,180.5C 53.2543,177.74 55.5876,175.74 58.5,174.5C 57.5091,170.511 55.5091,167.178 52.5,164.5C 52.8333,164.5 53.1667,164.5 53.5,164.5C 54.4916,164.672 55.1583,164.338 55.5,163.5C 55.8333,163.5 56.1667,163.5 56.5,163.5C 56.4701,164.497 56.9701,165.164 58,165.5C 87.61,142.185 107.277,112.185 117,75.5C 117.392,72.8121 117.892,70.1454 118.5,67.5C 118.167,66.8333 117.833,66.1667 117.5,65.5C 116.019,66.4803 114.685,67.647 113.5,69C 107.83,70.6725 102.164,72.3392 96.5,74C 95.6195,74.7083 94.9528,75.5416 94.5,76.5C 93.596,75.791 93.2627,74.791 93.5,73.5C 95.5,73.5 96.5,72.5 96.5,70.5C 99.9404,69.7485 102.94,68.0819 105.5,65.5C 106.328,66.4147 107.328,67.0814 108.5,67.5C 113.031,65.9615 116.698,63.2948 119.5,59.5C 121.227,63.3066 123.061,63.3066 125,59.5C 125.414,59.9574 125.914,60.2907 126.5,60.5C 127.826,59.0098 129.326,57.6765 131,56.5C 131.483,55.552 131.649,54.552 131.5,53.5C 129.508,53.3285 127.842,53.9951 126.5,55.5C 125.468,53.9604 124.135,53.4604 122.5,54C 119.023,56.2643 115.689,58.7643 112.5,61.5C 110.338,57.7099 108.005,57.7099 105.5,61.5C 104.478,61.1445 103.811,60.4778 103.5,59.5C 104.167,58.8333 104.833,58.1667 105.5,57.5C 109.145,57.2729 112.145,55.7729 114.5,53C 117.633,53.0461 120.3,52.0461 122.5,50C 126.167,49.6667 129.833,49.3333 133.5,49C 134.167,48.3333 134.833,47.6667 135.5,47C 139.195,46.6821 142.862,46.1821 146.5,45.5C 151.699,48.552 157.199,49.2186 163,47.5C 167.489,48.0989 171.989,48.5989 176.5,49C 179.328,51.2481 182.328,53.2481 185.5,55C 191.59,57.393 197.923,59.0596 204.5,60C 206.996,62.6559 208.996,65.6559 210.5,69C 215.792,68.2908 218.792,70.4575 219.5,75.5C 226.862,75.3634 230.362,79.03 230,86.5C 232.862,88.0704 235.695,89.737 238.5,91.5C 239.678,95.1701 241.845,98.1701 245,100.5C 247.281,106.9 248.948,113.567 250,120.5C 253.482,122.759 254.315,125.759 252.5,129.5C 253.108,132.145 253.608,134.812 254,137.5C 257.966,140.869 258.466,144.702 255.5,149C 256.309,150.784 256.976,152.617 257.5,154.5C 256.56,158.203 255.227,161.703 253.5,165C 255.455,171.311 254.622,177.144 251,182.5C 250.703,185.914 250.036,189.247 249,192.5C 246.347,194.43 245.014,197.096 245,200.5C 240.777,203.55 237.944,207.55 236.5,212.5C 231.696,214.964 228.363,218.631 226.5,223.5 Z"/></g>
<g><path style="opacity:1" fill="#e1e1e1" d="M 144.5,51.5 C 143.5,51.5 142.5,51.5 141.5,51.5C 142.204,49.6558 143.537,49.1558 145.5,50C 144.944,50.3826 144.611,50.8826 144.5,51.5 Z"/></g>
<g><path style="opacity:1" fill="#efeeee" d="M 151.5,52.5 C 150.5,52.5 149.5,52.5 148.5,52.5C 148.586,51.5041 148.252,50.6708 147.5,50C 148.793,49.51 150.127,49.3433 151.5,49.5C 151.5,50.5 151.5,51.5 151.5,52.5 Z"/></g>
<g><path style="opacity:1" fill="#e6e6e6" d="M 141.5,51.5 C 141.5,52.5 141.5,53.5 141.5,54.5C 139.362,54.703 137.695,55.703 136.5,57.5C 134.889,56.6798 134.222,55.3464 134.5,53.5C 136.638,53.297 138.305,52.297 139.5,50.5C 140.183,50.8627 140.85,51.1961 141.5,51.5 Z"/></g>
<g><path style="opacity:1" fill="#4b4849" d="M 141.5,51.5 C 142.5,51.5 143.5,51.5 144.5,51.5C 144.5,52.5 144.5,53.5 144.5,54.5C 143.5,54.5 142.5,54.5 141.5,54.5C 141.5,53.5 141.5,52.5 141.5,51.5 Z"/></g>
<g><path style="opacity:1" fill="#dcdbdb" d="M 151.5,55.5 C 151.5,54.5 151.5,53.5 151.5,52.5C 153.277,52.2137 154.944,51.5471 156.5,50.5C 158.136,51.3039 159.636,52.3039 161,53.5C 161.849,48.9851 163.682,48.4851 166.5,52C 164.679,53.7433 162.679,55.2433 160.5,56.5C 158.603,56.2718 157.27,55.2718 156.5,53.5C 155.465,56.2656 153.799,56.9323 151.5,55.5 Z"/></g>
<g><path style="opacity:1" fill="#f3f3f3" d="M 179.5,55.5 C 177.804,55.3146 176.471,54.4813 175.5,53C 177.945,52.0902 179.278,52.9236 179.5,55.5 Z"/></g>
<g><path style="opacity:1" fill="#4d4a4b" d="M 148.5,52.5 C 149.5,52.5 150.5,52.5 151.5,52.5C 151.5,53.5 151.5,54.5 151.5,55.5C 150.167,55.5 148.833,55.5 147.5,55.5C 148.11,54.609 148.443,53.609 148.5,52.5 Z"/></g>
<g><path style="opacity:1" fill="#ececec" d="M 144.5,51.5 C 145.959,51.4326 147.292,51.7659 148.5,52.5C 148.443,53.609 148.11,54.609 147.5,55.5C 146.007,56.4451 144.507,57.4451 143,58.5C 140.971,57.4861 140.471,56.1528 141.5,54.5C 142.5,54.5 143.5,54.5 144.5,54.5C 144.5,53.5 144.5,52.5 144.5,51.5 Z"/></g>
<g><path style="opacity:1" fill="#f5f5f5" d="M 147.5,55.5 C 148.833,55.5 150.167,55.5 151.5,55.5C 150.573,60.6224 149.239,60.6224 147.5,55.5 Z"/></g>
<g><path style="opacity:1" fill="#e7e7e7" d="M 179.5,55.5 C 182.076,56.1069 184.409,57.2736 186.5,59C 187.833,59.6667 187.833,60.3333 186.5,61C 187.448,61.4828 188.448,61.6495 189.5,61.5C 189.281,60.325 189.614,59.325 190.5,58.5C 192.213,58.8793 193.213,59.8793 193.5,61.5C 192.833,61.5 192.5,61.8333 192.5,62.5C 191.007,63.4451 189.507,64.4451 188,65.5C 185.262,63.7106 183.095,61.3772 181.5,58.5C 180.751,60.0116 179.584,61.0116 178,61.5C 176.518,59.8881 174.685,58.8881 172.5,58.5C 173.85,59.8235 173.683,60.8235 172,61.5C 169.428,59.7942 166.928,57.9609 164.5,56C 166.403,54.5527 168.07,52.886 169.5,51C 172.674,50.1712 173.674,51.1712 172.5,54C 174.867,54.374 176.7,55.5407 178,57.5C 179.03,57.1639 179.53,56.4972 179.5,55.5 Z"/></g>
<g><path style="opacity:1" fill="#2d292a" d="M 172.5,58.5 C 171.357,58.0919 170.357,57.4252 169.5,56.5C 171.396,55.3606 172.396,56.0272 172.5,58.5 Z"/></g>
<g><path style="opacity:1" fill="#eb1d24" d="M 156.5,60.5 C 162.455,61.9581 168.455,63.2914 174.5,64.5C 182.132,107.104 202.632,142.104 236,169.5C 235.124,176.336 234.624,183.336 234.5,190.5C 232.143,190.337 229.81,190.503 227.5,191C 225.277,195.278 222.443,199.112 219,202.5C 218.461,205.529 217.794,208.529 217,211.5C 214.932,212.394 212.765,213.06 210.5,213.5C 178.532,202.856 145.866,200.023 112.5,205C 104.086,206.694 95.9191,209.194 88,212.5C 85.9011,211.713 83.7345,211.38 81.5,211.5C 82.3806,206.391 80.3806,203.057 75.5,201.5C 74.7285,199.138 73.8952,196.804 73,194.5C 66.1973,191.859 63.5306,186.859 65,179.5C 61.6638,176.566 60.6638,172.9 62,168.5C 93.2404,140.74 113.407,106.406 122.5,65.5C 125.443,64.7565 128.443,64.2565 131.5,64C 132.459,62.5362 133.792,61.7028 135.5,61.5C 139.588,63.3816 143.755,64.0483 148,63.5C 151.15,63.0531 153.983,62.0531 156.5,60.5 Z"/></g>
<g><path style="opacity:1" fill="#d9d8d8" d="M 96.5,70.5 C 96.7118,68.6159 97.7118,67.2826 99.5,66.5C 98.0163,64.1339 98.683,62.8005 101.5,62.5C 100.086,60.4017 100.752,59.4017 103.5,59.5C 103.811,60.4778 104.478,61.1445 105.5,61.5C 108.005,57.7099 110.338,57.7099 112.5,61.5C 115.689,58.7643 119.023,56.2643 122.5,54C 124.135,53.4604 125.468,53.9604 126.5,55.5C 127.842,53.9951 129.508,53.3285 131.5,53.5C 131.649,54.552 131.483,55.552 131,56.5C 129.326,57.6765 127.826,59.0098 126.5,60.5C 125.914,60.2907 125.414,59.9574 125,59.5C 123.061,63.3066 121.227,63.3066 119.5,59.5C 116.698,63.2948 113.031,65.9615 108.5,67.5C 107.328,67.0814 106.328,66.4147 105.5,65.5C 102.94,68.0819 99.9404,69.7485 96.5,70.5 Z"/></g>
<g><path style="opacity:1" fill="#231f20" d="M 101.5,62.5 C 103.337,62.6395 103.67,63.3061 102.5,64.5C 101.702,64.0431 101.369,63.3764 101.5,62.5 Z"/></g>
<g><path style="opacity:1" fill="#231f20" d="M 107.5,62.5 C 109.337,62.6395 109.67,63.3061 108.5,64.5C 107.702,64.0431 107.369,63.3764 107.5,62.5 Z"/></g>
<g><path style="opacity:1" fill="#bab9b9" d="M 199.5,62.5 C 199.5,63.5 199.5,64.5 199.5,65.5C 198.041,65.4326 196.708,65.7659 195.5,66.5C 193.088,66.3059 192.088,64.9726 192.5,62.5C 192.5,61.8333 192.833,61.5 193.5,61.5C 194.817,61.179 196.151,60.8457 197.5,60.5C 198.713,60.7472 199.38,61.4138 199.5,62.5 Z"/></g>
<g><path style="opacity:1" fill="#fbfbfb" d="M 179.5,62.5 C 182.241,63.4394 184.241,65.2728 185.5,68C 187.473,68.4955 189.473,68.6621 191.5,68.5C 191.409,73.1981 193.575,74.8648 198,73.5C 202.294,74.7916 204.794,77.6249 205.5,82C 211.684,80.8616 214.851,83.3616 215,89.5C 218.463,90.2876 221.463,91.9543 224,94.5C 224.004,96.3684 223.504,98.2017 222.5,100C 223.896,102.235 225.896,103.402 228.5,103.5C 228.337,105.857 228.503,108.19 229,110.5C 235.713,110.788 237.213,113.788 233.5,119.5C 235.372,121.535 237.039,123.702 238.5,126C 236.753,128.98 236.253,132.147 237,135.5C 239.158,136.826 240.992,138.493 242.5,140.5C 240.903,141.791 239.57,143.291 238.5,145C 239.439,146.944 240.773,148.611 242.5,150C 240.473,152.177 239.139,154.677 238.5,157.5C 238.667,158.5 238.833,159.5 239,160.5C 240.896,161.68 242.396,163.18 243.5,165C 243.333,166.5 242.5,167.333 241,167.5C 205.524,141.208 185.024,106.208 179.5,62.5 Z"/></g>
<g><path style="opacity:1" fill="#fcfcfc" d="M 56.5,163.5 C 58.0066,158.134 59.0066,152.634 59.5,147C 58.8333,145.333 58.1667,143.667 57.5,142C 59.5149,136.552 61.3482,131.052 63,125.5C 63.3333,122.833 63.6667,120.167 64,117.5C 65.8333,115 67.6667,112.5 69.5,110C 68.552,109.517 67.552,109.351 66.5,109.5C 67.0978,106.269 68.2644,105.936 70,108.5C 70.7876,105.037 72.4543,102.037 75,99.5C 74.5139,93.9853 77.0139,90.8186 82.5,90C 86.7781,85.7068 90.7781,81.2068 94.5,76.5C 94.9528,75.5416 95.6195,74.7083 96.5,74C 102.164,72.3392 107.83,70.6725 113.5,69C 114.685,67.647 116.019,66.4803 117.5,65.5C 117.833,66.1667 118.167,66.8333 118.5,67.5C 117.892,70.1454 117.392,72.8121 117,75.5C 107.277,112.185 87.61,142.185 58,165.5C 56.9701,165.164 56.4701,164.497 56.5,163.5 Z"/></g>
<g><path style="opacity:1" fill="#e5e4e4" d="M 199.5,62.5 C 202.787,63.264 205.454,65.0973 207.5,68C 206.944,68.3826 206.611,68.8826 206.5,69.5C 204.381,69.4677 203.048,70.4677 202.5,72.5C 201.5,72.5 200.5,72.5 199.5,72.5C 199.5,71.5 199.5,70.5 199.5,69.5C 198.315,70.7711 196.315,71.7711 193.5,72.5C 193.614,70.2821 194.28,68.2821 195.5,66.5C 196.708,65.7659 198.041,65.4326 199.5,65.5C 199.5,64.5 199.5,63.5 199.5,62.5 Z"/></g>
<g><path style="opacity:1" fill="#2d292a" d="M 200.5,66.5 C 202.337,66.6395 202.67,67.3061 201.5,68.5C 200.702,68.0431 200.369,67.3764 200.5,66.5 Z"/></g>
<g><path style="opacity:1" fill="#f3f3f3" d="M 93.5,70.5 C 94.5,70.5 95.5,70.5 96.5,70.5C 96.5,72.5 95.5,73.5 93.5,73.5C 92.1667,72.5 92.1667,71.5 93.5,70.5 Z"/></g>
<g><path style="opacity:1" fill="#f7f7f7" d="M 206.5,69.5 C 207.609,69.5569 208.609,69.8902 209.5,70.5C 208.797,74.3368 207.464,74.5034 205.5,71C 206.056,70.6174 206.389,70.1174 206.5,69.5 Z"/></g>
<g><path style="opacity:1" fill="#ededed" d="M 202.5,72.5 C 204.973,72.0882 206.306,73.0882 206.5,75.5C 204.027,75.9118 202.694,74.9118 202.5,72.5 Z"/></g>
<g><path style="opacity:1" fill="#eeeeee" d="M 213.5,76.5 C 210.046,76.7332 209.046,75.3999 210.5,72.5C 212.54,71.4808 214.54,71.4808 216.5,72.5C 215.675,73.3857 214.675,73.719 213.5,73.5C 213.5,74.5 213.5,75.5 213.5,76.5 Z"/></g>
<g><path style="opacity:1" fill="#6f6c6c" d="M 206.5,69.5 C 206.389,70.1174 206.056,70.6174 205.5,71C 207.464,74.5034 208.797,74.3368 209.5,70.5C 210.338,70.8417 210.672,71.5084 210.5,72.5C 209.046,75.3999 210.046,76.7332 213.5,76.5C 213.5,77.1667 213.167,77.5 212.5,77.5C 211.833,77.5 211.167,77.5 210.5,77.5C 209.395,76.3995 208.062,75.7329 206.5,75.5C 206.306,73.0882 204.973,72.0882 202.5,72.5C 203.048,70.4677 204.381,69.4677 206.5,69.5 Z"/></g>
<g><path style="opacity:1" fill="#dcdbdc" d="M 206.5,75.5 C 208.062,75.7329 209.395,76.3995 210.5,77.5C 210.278,80.0764 208.945,80.9098 206.5,80C 205.272,78.5098 205.272,77.0098 206.5,75.5 Z"/></g>
<g><path style="opacity:1" fill="#f1f1f1" d="M 213.5,76.5 C 214.5,76.5 215.5,76.5 216.5,76.5C 216.778,78.3464 216.111,79.6798 214.5,80.5C 213.081,79.9953 212.415,78.9953 212.5,77.5C 213.167,77.5 213.5,77.1667 213.5,76.5 Z"/></g>
<g><path style="opacity:1" fill="#dbdadb" d="M 219.5,77.5 C 220.833,77.5 222.167,77.5 223.5,77.5C 223.5,78.5 223.5,79.5 223.5,80.5C 224.5,80.5 225.5,80.5 226.5,80.5C 226.649,81.552 226.483,82.552 226,83.5C 224.045,84.4533 222.378,85.7866 221,87.5C 219.071,85.3153 219.571,83.6486 222.5,82.5C 222.167,82.1667 221.833,81.8333 221.5,81.5C 220.15,82.9501 218.484,83.6168 216.5,83.5C 216.683,81.0122 217.683,79.0122 219.5,77.5 Z"/></g>
<g><path style="opacity:1" fill="#dbdbdb" d="M 223.5,86.5 C 224.5,86.5 225.5,86.5 226.5,86.5C 228.128,89.6553 230.128,92.6553 232.5,95.5C 231.01,96.8257 229.676,98.3257 228.5,100C 227.035,100.601 226.035,100.101 225.5,98.5C 226.263,97.2807 227.263,96.2807 228.5,95.5C 226.244,94.5791 225.244,92.9124 225.5,90.5C 224.5,90.5 223.5,90.5 222.5,90.5C 222.433,89.0413 222.766,87.7079 223.5,86.5 Z"/></g>
<g><path style="opacity:1" fill="#312829" d="M 128.5,90.5 C 135.869,90.2587 142.869,91.7587 149.5,95C 154.895,96.1313 159.895,95.298 164.5,92.5C 166,92.4528 167,93.1195 167.5,94.5C 164.224,99.2788 160.391,103.612 156,107.5C 153.667,111.5 151.333,115.5 149,119.5C 148.333,123.833 148.333,128.167 149,132.5C 152.138,140.913 155.471,149.246 159,157.5C 161.541,180.628 151.208,193.295 128,195.5C 123.287,195.721 118.787,194.888 114.5,193C 107.711,188.868 101.544,184.035 96,178.5C 92.5087,173.467 92.6754,168.633 96.5,164C 100.666,161.749 104.166,162.583 107,166.5C 108.065,172.146 109.065,177.813 110,183.5C 119.104,192.128 129.271,193.628 140.5,188C 144.84,183.843 147.173,178.676 147.5,172.5C 143.784,165.067 140.617,157.4 138,149.5C 134.37,134.469 137.537,121.136 147.5,109.5C 141.804,109.115 136.471,107.615 131.5,105C 128.167,104.333 124.833,104.333 121.5,105C 120.426,105.739 119.759,106.739 119.5,108C 120.609,110.047 121.276,112.213 121.5,114.5C 119.712,114.785 118.045,114.452 116.5,113.5C 112.846,101.807 116.846,94.14 128.5,90.5 Z"/></g>
<g><path style="opacity:1" fill="#ececec" d="M 238.5,98.5 C 237.167,98.5 236.5,99.1667 236.5,100.5C 235.036,101.405 233.702,101.405 232.5,100.5C 231.506,98.1457 232.506,97.1457 235.5,97.5C 235.079,95.0901 233.746,93.2568 231.5,92C 232.025,91.3076 232.692,90.8076 233.5,90.5C 236.861,92.1783 238.528,94.845 238.5,98.5 Z"/></g>
<g><path style="opacity:1" fill="#e4e4e4" d="M 148.5,98.5 C 147.925,100.411 146.925,102.078 145.5,103.5C 139.396,104.599 133.896,103.266 129,99.5C 120.49,102.827 119.656,101.66 126.5,96C 129.092,93.543 131.592,93.3763 134,95.5C 135.356,94.6198 136.856,94.2865 138.5,94.5C 138.1,97.7609 139.267,98.4276 142,96.5C 144.059,97.6182 146.226,98.2849 148.5,98.5 Z"/></g>
<g><path style="opacity:1" fill="#322e2f" d="M 238.5,98.5 C 238.557,99.609 238.89,100.609 239.5,101.5C 238.391,101.443 237.391,101.11 236.5,100.5C 236.5,99.1667 237.167,98.5 238.5,98.5 Z"/></g>
<g><path style="opacity:1" fill="#dddddd" d="M 238.5,98.5 C 241.564,98.9811 242.398,100.314 241,102.5C 240.617,101.944 240.117,101.611 239.5,101.5C 238.89,100.609 238.557,99.609 238.5,98.5 Z"/></g>
<g><path style="opacity:1" fill="#e8e7e7" d="M 150.5,99.5 C 155.39,99.6392 155.723,101.139 151.5,104C 149.03,106.014 147.03,105.847 145.5,103.5C 147.749,102.92 149.415,101.587 150.5,99.5 Z"/></g>
<g><path style="opacity:1" fill="#e9e8e8" d="M 232.5,100.5 C 232.567,101.959 232.234,103.292 231.5,104.5C 229.896,103.713 229.229,102.38 229.5,100.5C 230.5,100.5 231.5,100.5 232.5,100.5 Z"/></g>
<g><path style="opacity:1" fill="#f5f5f5" d="M 236.5,100.5 C 237.391,101.11 238.391,101.443 239.5,101.5C 239.5,102.5 239.5,103.5 239.5,104.5C 236.046,104.733 235.046,103.4 236.5,100.5 Z"/></g>
<g><path style="opacity:1" fill="#8a8888" d="M 148.5,98.5 C 149.167,98.8333 149.833,99.1667 150.5,99.5C 149.415,101.587 147.749,102.92 145.5,103.5C 146.925,102.078 147.925,100.411 148.5,98.5 Z"/></g>
<g><path style="opacity:1" fill="#666364" d="M 232.5,100.5 C 233.702,101.405 235.036,101.405 236.5,100.5C 235.046,103.4 236.046,104.733 239.5,104.5C 238.326,106.368 238.993,107.368 241.5,107.5C 241.158,108.338 240.492,108.672 239.5,108.5C 237.245,107.352 235.412,105.686 234,103.5C 233.292,104.381 232.458,105.047 231.5,105.5C 231.5,105.167 231.5,104.833 231.5,104.5C 232.234,103.292 232.567,101.959 232.5,100.5 Z"/></g>
<g><path style="opacity:1" fill="#f1f0f0" d="M 239.5,104.5 C 240.5,104.5 241.5,104.5 242.5,104.5C 242.737,105.791 242.404,106.791 241.5,107.5C 238.993,107.368 238.326,106.368 239.5,104.5 Z"/></g>
<g><path style="opacity:1" fill="#e9e8e9" d="M 239.5,108.5 C 239.167,109.167 238.833,109.833 238.5,110.5C 237.5,110.5 236.5,110.5 235.5,110.5C 235.649,109.448 235.483,108.448 235,107.5C 233.421,108.172 232.254,107.505 231.5,105.5C 232.458,105.047 233.292,104.381 234,103.5C 235.412,105.686 237.245,107.352 239.5,108.5 Z"/></g>
<g><path style="opacity:1" fill="#dddddd" d="M 238.5,110.5 C 240.912,110.244 242.579,111.244 243.5,113.5C 244.524,112.147 245.857,111.48 247.5,111.5C 247.271,113.433 246.438,115.1 245,116.5C 243.989,117.337 242.822,117.67 241.5,117.5C 241.5,116.5 241.5,115.5 241.5,114.5C 238.45,114.354 237.45,113.02 238.5,110.5 Z"/></g>
<g><path style="opacity:1" fill="#e4e4e4" d="M 145.5,117.5 C 146.712,119.264 146.379,120.93 144.5,122.5C 143.348,120.603 143.681,118.936 145.5,117.5 Z"/></g>
<g><path style="opacity:1" fill="#ecebec" d="M 143.5,124.5 C 146.125,127.346 145.458,129.679 141.5,131.5C 140.144,128.593 140.81,126.259 143.5,124.5 Z"/></g>
<g><path style="opacity:1" fill="#312b2c" d="M 169.5,126.5 C 178.167,126.5 186.833,126.5 195.5,126.5C 195.5,130.167 195.5,133.833 195.5,137.5C 191.154,137.334 186.821,137.501 182.5,138C 182.043,138.414 181.709,138.914 181.5,139.5C 185.041,140.2 188.541,140.867 192,141.5C 192.499,145.486 192.666,149.486 192.5,153.5C 188.833,153.5 185.167,153.5 181.5,153.5C 181.295,159.878 181.628,166.211 182.5,172.5C 177.833,172.5 173.167,172.5 168.5,172.5C 168.183,157.089 168.517,141.755 169.5,126.5 Z"/></g>
<g><path style="opacity:1" fill="#3e3031" d="M 110.5,126.5 C 115.167,126.5 119.833,126.5 124.5,126.5C 124.833,141.848 124.499,157.181 123.5,172.5C 119.558,173.6 115.558,173.767 111.5,173C 111,172.5 110.5,172 110,171.5C 109.184,156.426 109.351,141.426 110.5,126.5 Z"/></g>
<g><path style="opacity:1" fill="#ebebeb" d="M 174.5,147.5 C 173.504,147.414 172.671,147.748 172,148.5C 171.889,145.355 171.722,142.355 171.5,139.5C 171.529,137.971 172.196,136.804 173.5,136C 172.552,135.517 171.552,135.351 170.5,135.5C 170.722,129.508 173.222,128.175 178,131.5C 180.075,129.352 182.408,129.018 185,130.5C 186.913,128.813 189.08,128.313 191.5,129C 192.451,129.718 192.617,130.551 192,131.5C 188.555,135.321 184.389,136.488 179.5,135C 176.03,137.123 176.03,138.29 179.5,138.5C 179.657,139.873 179.49,141.207 179,142.5C 177.293,144.037 175.793,145.704 174.5,147.5 Z"/></g>
<g><path style="opacity:1" fill="#7f7d7d" d="M 244.5,127.5 C 248.762,128.456 248.428,129.789 243.5,131.5C 244.234,130.292 244.567,128.959 244.5,127.5 Z"/></g>
<g><path style="opacity:1" fill="#e9e9e9" d="M 241.5,117.5 C 242.598,118.397 242.598,119.23 241.5,120C 242,120.167 242.5,120.333 243,120.5C 244.168,119.491 245.335,118.491 246.5,117.5C 247.734,119.398 247.401,121.065 245.5,122.5C 247.7,124.383 249.367,126.717 250.5,129.5C 250.081,130.672 249.415,131.672 248.5,132.5C 251.39,133.837 252.057,135.837 250.5,138.5C 248.284,137.797 246.451,136.464 245,134.5C 244.517,135.448 244.351,136.448 244.5,137.5C 242.088,137.306 241.088,135.973 241.5,133.5C 242.833,133.5 243.5,132.833 243.5,131.5C 248.428,129.789 248.762,128.456 244.5,127.5C 244.5,126.5 244.5,125.5 244.5,124.5C 243.448,124.649 242.448,124.483 241.5,124C 240.324,122.326 238.99,120.826 237.5,119.5C 238.368,117.204 239.702,116.537 241.5,117.5 Z"/></g>
<g><path style="opacity:1" fill="#eeeeee" d="M 145.5,135.5 C 143.956,135.703 142.622,136.37 141.5,137.5C 140.103,133.303 141.77,131.303 146.5,131.5C 146.567,132.959 146.234,134.292 145.5,135.5 Z"/></g>
<g><path style="opacity:1" fill="#e9e8e8" d="M 244.5,127.5 C 244.567,128.959 244.234,130.292 243.5,131.5C 242.167,131.5 241.5,132.167 241.5,133.5C 239.894,134.78 238.894,134.28 238.5,132C 239.707,130.7 240.374,129.2 240.5,127.5C 241.833,127.5 243.167,127.5 244.5,127.5 Z"/></g>
<g><path style="opacity:1" fill="#221f1f" d="M 243.5,131.5 C 243.5,132.833 242.833,133.5 241.5,133.5C 241.5,132.167 242.167,131.5 243.5,131.5 Z"/></g>
<g><path style="opacity:1" fill="#ebeaea" d="M 120.5,138.5 C 118.5,139.833 116.833,141.5 115.5,143.5C 114.5,143.5 113.5,143.5 112.5,143.5C 112.128,140.077 113.461,137.577 116.5,136C 112.194,136.376 111.527,134.71 114.5,131C 116.586,129.173 118.586,129.173 120.5,131C 121.38,133.314 121.38,135.814 120.5,138.5 Z"/></g>
<g><path style="opacity:1" fill="#e3e2e2" d="M 145.5,135.5 C 147.599,136.37 147.932,137.703 146.5,139.5C 148.98,140.415 149.647,141.915 148.5,144C 151.816,145.251 152.15,146.918 149.5,149C 153.155,149.928 153.821,151.595 151.5,154C 152.448,154.483 153.448,154.649 154.5,154.5C 154.714,156.144 154.38,157.644 153.5,159C 154.516,159.519 155.182,160.353 155.5,161.5C 154.568,163.765 153.235,165.765 151.5,167.5C 148.611,167.001 147.944,165.501 149.5,163C 147.387,161.296 145.887,159.463 145,157.5C 144.316,156.216 144.483,155.049 145.5,154C 142.654,153.121 141.987,151.454 143.5,149C 141.342,147.688 141.009,146.022 142.5,144C 141.484,143.481 140.818,142.647 140.5,141.5C 141.861,139.301 143.527,137.301 145.5,135.5 Z"/></g>
<g><path style="opacity:1" fill="#fbfbfb" d="M 244.5,137.5 C 246.912,137.694 247.912,139.027 247.5,141.5C 246.5,141.5 245.5,141.5 244.5,141.5C 244.5,140.167 244.5,138.833 244.5,137.5 Z"/></g>
<g><path style="opacity:1" fill="#646162" d="M 250.5,138.5 C 250.5,139.5 250.5,140.5 250.5,141.5C 249.5,141.5 248.5,141.5 247.5,141.5C 247.912,139.027 246.912,137.694 244.5,137.5C 244.351,136.448 244.517,135.448 245,134.5C 246.451,136.464 248.284,137.797 250.5,138.5 Z"/></g>
<g><path style="opacity:1" fill="#f9f9f9" d="M 250.5,138.5 C 252.5,138.5 253.5,139.5 253.5,141.5C 252.5,141.5 251.5,141.5 250.5,141.5C 250.5,140.5 250.5,139.5 250.5,138.5 Z"/></g>
<g><path style="opacity:1" fill="#8f8d8d" d="M 120.5,138.5 C 120.833,139.167 121.167,139.833 121.5,140.5C 119.5,141.5 117.5,142.5 115.5,143.5C 116.833,141.5 118.5,139.833 120.5,138.5 Z"/></g>
<g><path style="opacity:1" fill="#8f8d8e" d="M 250.5,141.5 C 251.5,141.5 252.5,141.5 253.5,141.5C 256.962,143.193 256.962,144.193 253.5,144.5C 252.5,144.5 251.5,144.5 250.5,144.5C 250.5,143.5 250.5,142.5 250.5,141.5 Z"/></g>
<g><path style="opacity:1" fill="#ececec" d="M 176.5,157.5 C 174.956,157.703 173.622,158.37 172.5,159.5C 172.167,158.833 171.833,158.167 171.5,157.5C 171.904,155.3 172.07,152.966 172,150.5C 173.045,149.627 173.878,148.627 174.5,147.5C 176.544,146.969 178.211,145.802 179.5,144C 182.126,144.148 184.626,143.981 187,143.5C 189.241,143.68 189.741,144.513 188.5,146C 190.107,147.049 190.773,148.549 190.5,150.5C 188.508,150.672 186.842,150.005 185.5,148.5C 183.821,150.104 181.821,150.771 179.5,150.5C 179.85,153.453 178.85,155.787 176.5,157.5 Z"/></g>
<g><path style="opacity:1" fill="#d4d4d4" d="M 247.5,141.5 C 248.5,141.5 249.5,141.5 250.5,141.5C 250.5,142.5 250.5,143.5 250.5,144.5C 251.5,144.5 252.5,144.5 253.5,144.5C 254.303,145.423 254.47,146.423 254,147.5C 252.255,148.956 250.422,150.289 248.5,151.5C 247.305,149.703 245.638,148.703 243.5,148.5C 243.13,144.814 244.463,143.814 247.5,145.5C 246.167,144.167 246.167,142.833 247.5,141.5 Z"/></g>
<g><path style="opacity:1" fill="#2b2728" d="M 247.5,145.5 C 249.337,145.639 249.67,146.306 248.5,147.5C 247.702,147.043 247.369,146.376 247.5,145.5 Z"/></g>
<g><path style="opacity:1" fill="#f5f4f4" d="M 253.5,155.5 C 251.381,155.468 250.048,156.468 249.5,158.5C 248.5,158.5 247.5,158.5 246.5,158.5C 246.5,157.167 246.5,155.833 246.5,154.5C 248.638,154.297 250.305,153.297 251.5,151.5C 253.111,152.32 253.778,153.654 253.5,155.5 Z"/></g>
<g><path style="opacity:1" fill="#403c3d" d="M 246.5,154.5 C 246.5,155.833 246.5,157.167 246.5,158.5C 242.5,157.167 242.5,155.833 246.5,154.5 Z"/></g>
<g><path style="opacity:1" fill="#e5e4e4" d="M 176.5,157.5 C 177.5,157.5 178.5,157.5 179.5,157.5C 178.932,160.758 178.766,164.091 179,167.5C 176.782,169.619 174.282,169.952 171.5,168.5C 172.5,167.667 173.5,166.833 174.5,166C 173.551,165.383 172.718,165.549 172,166.5C 171.833,165.667 171.667,164.833 171.5,164C 172.956,161.706 174.623,159.539 176.5,157.5 Z"/></g>
<g><path style="opacity:1" fill="#8d8b8b" d="M 253.5,155.5 C 255.985,156.26 255.985,157.26 253.5,158.5C 252.167,158.5 250.833,158.5 249.5,158.5C 250.048,156.468 251.381,155.468 253.5,155.5 Z"/></g>
<g><path style="opacity:1" fill="#ebeaea" d="M 121.5,140.5 C 121.577,143.509 120.244,145.676 117.5,147C 118.549,147.492 119.549,147.326 120.5,146.5C 121.848,148.611 121.515,150.445 119.5,152C 120.516,152.519 121.182,153.353 121.5,154.5C 120.781,156.728 119.448,158.561 117.5,160C 118.996,160.507 120.163,160.007 121,158.5C 122.835,160.727 122.335,162.56 119.5,164C 121.615,164.424 122.448,165.591 122,167.5C 120.395,170.274 118.228,170.94 115.5,169.5C 117.976,166.147 117.476,165.814 114,168.5C 113.08,165.692 113.913,163.525 116.5,162C 115.551,161.383 114.718,161.549 114,162.5C 113.308,161.975 112.808,161.308 112.5,160.5C 114.215,158.126 116.215,155.96 118.5,154C 116.613,153.837 115.113,154.671 114,156.5C 111.985,153.859 112.485,151.692 115.5,150C 114.552,149.517 113.552,149.351 112.5,149.5C 112.615,147.053 113.615,145.053 115.5,143.5C 117.5,142.5 119.5,141.5 121.5,140.5 Z"/></g>
<g><path style="opacity:1" fill="#7a7878" d="M 52.5,160.5 C 52.4326,161.959 52.7659,163.292 53.5,164.5C 53.1667,164.5 52.8333,164.5 52.5,164.5C 51.2921,163.766 49.9587,163.433 48.5,163.5C 49.0478,161.468 50.3812,160.468 52.5,160.5 Z"/></g>
<g><path style="opacity:1" fill="#d4d4d4" d="M 52.5,160.5 C 53.5,160.5 54.5,160.5 55.5,160.5C 55.5,161.5 55.5,162.5 55.5,163.5C 55.1583,164.338 54.4916,164.672 53.5,164.5C 52.7659,163.292 52.4326,161.959 52.5,160.5 Z"/></g>
<g><path style="opacity:1" fill="#e6e6e6" d="M 246.5,154.5 C 242.5,155.833 242.5,157.167 246.5,158.5C 246.5,159.5 246.5,160.5 246.5,161.5C 247.5,161.5 248.5,161.5 249.5,161.5C 249.5,160.5 249.5,159.5 249.5,158.5C 250.833,158.5 252.167,158.5 253.5,158.5C 253.576,160.923 252.576,162.756 250.5,164C 250.95,165.285 251.617,166.452 252.5,167.5C 252.192,168.308 251.692,168.975 251,169.5C 248.718,167.218 246.052,164.552 243,161.5C 242.255,159.797 241.421,158.13 240.5,156.5C 241.757,154.321 243.257,152.321 245,150.5C 247.012,151.566 247.512,152.9 246.5,154.5 Z"/></g>
<g><path style="opacity:1" fill="#454243" d="M 246.5,158.5 C 247.5,158.5 248.5,158.5 249.5,158.5C 249.5,159.5 249.5,160.5 249.5,161.5C 248.5,161.5 247.5,161.5 246.5,161.5C 246.5,160.5 246.5,159.5 246.5,158.5 Z"/></g>
<g><path style="opacity:1" fill="#f3f3f3" d="M 154.5,171.5 C 150.753,172.726 149.753,171.393 151.5,167.5C 153.044,167.297 154.378,166.63 155.5,165.5C 156.77,167.757 156.436,169.757 154.5,171.5 Z"/></g>
<g><path style="opacity:1" fill="#e7e7e7" d="M 103.5,173.5 C 101.856,174.366 100.189,174.866 98.5,175C 98.6112,172.471 98.1112,170.304 97,168.5C 99.2534,165.905 101.42,166.072 103.5,169C 104.728,170.49 104.728,171.99 103.5,173.5 Z"/></g>
<g><path style="opacity:1" fill="#f1f1f1" d="M 48.5,170.5 C 50.9726,170.088 52.3059,171.088 52.5,173.5C 51.1667,173.5 49.8333,173.5 48.5,173.5C 48.5,172.5 48.5,171.5 48.5,170.5 Z"/></g>
<g><path style="opacity:1" fill="#585556" d="M 52.5,173.5 C 52.3059,171.088 50.9726,170.088 48.5,170.5C 48.9081,169.357 49.5748,168.357 50.5,167.5C 51.8333,169.167 53.1667,170.833 54.5,172.5C 54.0431,173.298 53.3764,173.631 52.5,173.5 Z"/></g>
<g><path style="opacity:1" fill="#ececec" d="M 154.5,171.5 C 155.376,171.369 156.043,171.702 156.5,172.5C 155.557,175.109 153.89,177.109 151.5,178.5C 150.417,177.635 150.251,176.635 151,175.5C 152.376,174.295 153.542,172.962 154.5,171.5 Z"/></g>
<g><path style="opacity:1" fill="#ececec" d="M 245.5,171.5 C 245.5,172.5 245.5,173.5 245.5,174.5C 244.5,174.5 243.5,174.5 242.5,174.5C 242.5,173.5 242.5,172.5 242.5,171.5C 243.5,171.5 244.5,171.5 245.5,171.5 Z"/></g>
<g><path style="opacity:1" fill="#f6f6f6" d="M 251.5,175.5 C 249.512,174.255 247.512,172.922 245.5,171.5C 245.511,169.314 246.511,168.481 248.5,169C 249.333,170.5 250.5,171.667 252,172.5C 252.74,173.749 252.573,174.749 251.5,175.5 Z"/></g>
<g><path style="opacity:1" fill="#dddddd" d="M 48.5,163.5 C 49.9587,163.433 51.2921,163.766 52.5,164.5C 55.5091,167.178 57.5091,170.511 58.5,174.5C 55.5876,175.74 53.2543,177.74 51.5,180.5C 50.0047,180.585 49.0047,179.919 48.5,178.5C 50.2065,177.127 51.5398,175.461 52.5,173.5C 53.3764,173.631 54.0431,173.298 54.5,172.5C 53.1667,170.833 51.8333,169.167 50.5,167.5C 49.5748,168.357 48.9081,169.357 48.5,170.5C 47.5222,170.189 46.8555,169.522 46.5,168.5C 47.9501,167.15 48.6168,165.484 48.5,163.5 Z"/></g>
<g><path style="opacity:1" fill="#ececec" d="M 103.5,173.5 C 105.71,174.455 106.043,175.955 104.5,178C 106.037,179.11 106.703,180.61 106.5,182.5C 105.5,182.5 104.5,182.5 103.5,182.5C 103.5,181.5 103.5,180.5 103.5,179.5C 102.5,179.5 101.5,179.5 100.5,179.5C 100.615,177.053 101.615,175.053 103.5,173.5 Z"/></g>
<g><path style="opacity:1" fill="#696667" d="M 245.5,171.5 C 247.512,172.922 249.512,174.255 251.5,175.5C 251.158,176.338 250.492,176.672 249.5,176.5C 248.542,176.047 247.708,175.381 247,174.5C 244.931,176.704 245.431,178.037 248.5,178.5C 248.158,179.338 247.492,179.672 246.5,179.5C 244.754,177.748 242.754,176.415 240.5,175.5C 240.842,174.662 241.508,174.328 242.5,174.5C 243.5,174.5 244.5,174.5 245.5,174.5C 245.5,173.5 245.5,172.5 245.5,171.5 Z"/></g>
<g><path style="opacity:1" fill="#f4f4f4" d="M 249.5,176.5 C 249.672,177.492 249.338,178.158 248.5,178.5C 245.431,178.037 244.931,176.704 247,174.5C 247.708,175.381 248.542,176.047 249.5,176.5 Z"/></g>
<g><path style="opacity:1" fill="#e3e3e3" d="M 58.5,181.5 C 57.391,181.443 56.391,181.11 55.5,180.5C 54.4019,179.603 54.4019,178.77 55.5,178C 58.9361,177.263 59.9361,178.43 58.5,181.5 Z"/></g>
<g><path style="opacity:1" fill="#f2f2f2" d="M 51.5,180.5 C 52.5,180.5 53.5,180.5 54.5,180.5C 55.8333,181.833 55.8333,183.167 54.5,184.5C 52.7376,183.738 51.7376,182.404 51.5,180.5 Z"/></g>
<g><path style="opacity:1" fill="#fafafa" d="M 58.5,181.5 C 62.5634,181.616 63.2301,182.949 60.5,185.5C 59.3995,184.395 58.7329,183.062 58.5,181.5 Z"/></g>
<g><path style="opacity:1" fill="#dfdedf" d="M 240.5,175.5 C 242.754,176.415 244.754,177.748 246.5,179.5C 246.167,180.167 245.833,180.833 245.5,181.5C 246.5,181.5 247.5,181.5 248.5,181.5C 248.672,183.492 248.005,185.158 246.5,186.5C 249.456,189.589 248.789,191.256 244.5,191.5C 244.414,190.504 244.748,189.671 245.5,189C 242.539,187.757 240.205,185.757 238.5,183C 238.988,181.416 239.988,180.249 241.5,179.5C 240.754,178.264 240.421,176.93 240.5,175.5 Z"/></g>
<g><path style="opacity:1" fill="#666364" d="M 54.5,180.5 C 54.8333,180.5 55.1667,180.5 55.5,180.5C 56.391,181.11 57.391,181.443 58.5,181.5C 58.7329,183.062 59.3995,184.395 60.5,185.5C 60.1667,185.5 59.8333,185.5 59.5,185.5C 57.9588,183.206 56.6254,183.206 55.5,185.5C 56.3202,187.111 57.6536,187.778 59.5,187.5C 58.9522,189.532 57.6188,190.532 55.5,190.5C 56.4709,189.038 56.1376,187.705 54.5,186.5C 54.5,185.833 54.5,185.167 54.5,184.5C 55.8333,183.167 55.8333,181.833 54.5,180.5 Z"/></g>
<g><path style="opacity:1" fill="#4a4748" d="M 245.5,181.5 C 245.5,182.5 245.5,183.5 245.5,184.5C 244.5,184.5 243.5,184.5 242.5,184.5C 242.351,183.448 242.517,182.448 243,181.5C 243.77,182.598 244.603,182.598 245.5,181.5 Z"/></g>
<g><path style="opacity:1" fill="#f6f6f6" d="M 59.5,185.5 C 59.5,186.167 59.5,186.833 59.5,187.5C 57.6536,187.778 56.3202,187.111 55.5,185.5C 56.6254,183.206 57.9588,183.206 59.5,185.5 Z"/></g>
<g><path style="opacity:1" fill="#f3f3f3" d="M 54.5,186.5 C 56.1376,187.705 56.4709,189.038 55.5,190.5C 54.5,190.5 53.5,190.5 52.5,190.5C 52.1568,188.517 52.8235,187.183 54.5,186.5 Z"/></g>
<g><path style="opacity:1" fill="#dcdbdb" d="M 59.5,187.5 C 62.3357,187.837 63.0024,189.171 61.5,191.5C 60.1667,191.5 59.5,192.167 59.5,193.5C 57.0274,193.912 55.6941,192.912 55.5,190.5C 57.6188,190.532 58.9522,189.532 59.5,187.5 Z"/></g>
<g><path style="opacity:1" fill="#221f1f" d="M 61.5,191.5 C 61.5,192.833 60.8333,193.5 59.5,193.5C 59.5,192.167 60.1667,191.5 61.5,191.5 Z"/></g>
<g><path style="opacity:1" fill="#dadada" d="M 244.5,191.5 C 244.5,193.5 243.5,194.5 241.5,194.5C 241.25,193.078 240.417,192.078 239,191.5C 238.301,189.926 238.635,188.593 240,187.5C 241.307,189.192 242.807,190.525 244.5,191.5 Z"/></g>
<g><path style="opacity:1" fill="#e2e1e1" d="M 61.5,191.5 C 63.9726,191.088 65.3059,192.088 65.5,194.5C 66.8221,194.33 67.9887,194.663 69,195.5C 69.7453,197.203 70.5786,198.87 71.5,200.5C 71.3333,201.167 71.1667,201.833 71,202.5C 69.647,201.315 68.4803,199.981 67.5,198.5C 66.5748,199.357 65.9081,200.357 65.5,201.5C 62.5,201.833 61.1667,200.5 61.5,197.5C 60.5,197.5 59.5,197.5 58.5,197.5C 58.4326,196.041 58.7659,194.708 59.5,193.5C 60.8333,193.5 61.5,192.833 61.5,191.5 Z"/></g>
<g><path style="opacity:1" fill="#eae9ea" d="M 241.5,194.5 C 242.412,195.738 242.579,197.072 242,198.5C 239.821,199.396 237.988,200.729 236.5,202.5C 235.817,202.137 235.15,201.804 234.5,201.5C 234.5,200.5 234.5,199.5 234.5,198.5C 235.5,198.5 236.5,198.5 237.5,198.5C 236.987,196.71 236.487,195.044 236,193.5C 236.414,193.043 236.914,192.709 237.5,192.5C 238.524,193.853 239.857,194.52 241.5,194.5 Z"/></g>
<g><path style="opacity:1" fill="#3d393a" d="M 65.5,194.5 C 65.5,195.5 65.5,196.5 65.5,197.5C 64.5,197.5 63.5,197.5 62.5,197.5C 62.5,196.5 62.5,195.5 62.5,194.5C 63.5,194.5 64.5,194.5 65.5,194.5 Z"/></g>
<g><path style="opacity:1" fill="#e8e8e8" d="M 234.5,198.5 C 232.328,199.801 229.995,200.801 227.5,201.5C 227.33,200.178 227.663,199.011 228.5,198C 230.169,196.331 232.169,195.498 234.5,195.5C 234.5,196.5 234.5,197.5 234.5,198.5 Z"/></g>
<g><path style="opacity:1" fill="#f0efef" d="M 65.5,201.5 C 67.9726,201.088 69.3059,202.088 69.5,204.5C 68.1667,204.5 66.8333,204.5 65.5,204.5C 65.5,203.5 65.5,202.5 65.5,201.5 Z"/></g>
<g><path style="opacity:1" fill="#e2e2e2" d="M 69.5,204.5 C 72.9536,204.267 73.9536,205.6 72.5,208.5C 70.3812,208.468 69.0478,209.468 68.5,211.5C 67.0779,211.25 66.0779,210.417 65.5,209C 67.3844,207.951 68.7177,206.451 69.5,204.5 Z"/></g>
<g><path style="opacity:1" fill="#e7e7e7" d="M 75.5,208.5 C 75.5,207.5 75.5,206.5 75.5,205.5C 76.5,205.5 77.5,205.5 78.5,205.5C 78.5,206.5 78.5,207.5 78.5,208.5C 77.5,208.5 76.5,208.5 75.5,208.5 Z"/></g>
<g><path style="opacity:1" fill="#e4e3e3" d="M 224.5,205.5 C 224.5,206.167 224.5,206.833 224.5,207.5C 220.5,206.833 220.5,206.167 224.5,205.5 Z"/></g>
<g><path style="opacity:1" fill="#221f1f" d="M 224.5,205.5 C 227.167,206.167 227.167,206.833 224.5,207.5C 224.5,206.833 224.5,206.167 224.5,205.5 Z"/></g>
<g><path style="opacity:1" fill="#fcfcfc" d="M 199.5,227.5 C 199.389,228.117 199.056,228.617 198.5,229C 195.5,229.333 192.5,229.667 189.5,230C 187.192,231.867 184.525,232.867 181.5,233C 179.5,235 177.5,237 175.5,239C 171.516,238.814 167.516,238.814 163.5,239C 160.362,240.244 157.028,240.911 153.5,241C 150.886,244.232 148.552,243.899 146.5,240C 143.62,239.316 140.787,239.483 138,240.5C 134.233,238.203 130.233,237.87 126,239.5C 123.733,238.825 122.233,237.325 121.5,235C 118.025,234.624 115.025,233.291 112.5,231C 108.5,230.667 104.5,230.333 100.5,230C 99.281,227.722 97.9477,225.555 96.5,223.5C 95.0003,221.821 93.167,220.488 91,219.5C 90.2797,217.888 90.4464,216.388 91.5,215C 98.0471,212.595 104.714,210.595 111.5,209C 144.505,203.603 176.838,206.103 208.5,216.5C 209.833,217.5 209.833,218.5 208.5,219.5C 204.403,221.031 201.403,223.697 199.5,227.5 Z"/></g>
<g><path style="opacity:1" fill="#828080" d="M 234.5,205.5 C 235.376,205.369 236.043,205.702 236.5,206.5C 235.479,207.901 234.479,209.235 233.5,210.5C 233.179,208.952 232.179,208.285 230.5,208.5C 231.048,206.468 232.381,205.468 234.5,205.5 Z"/></g>
<g><path style="opacity:1" fill="#e1e0e1" d="M 234.5,201.5 C 234.5,202.833 234.5,204.167 234.5,205.5C 232.381,205.468 231.048,206.468 230.5,208.5C 229.5,208.5 228.5,208.5 227.5,208.5C 227.5,209.5 227.5,210.5 227.5,211.5C 224.046,211.733 223.046,210.4 224.5,207.5C 227.167,206.833 227.167,206.167 224.5,205.5C 224.5,204.5 224.5,203.5 224.5,202.5C 225.873,202.343 227.207,202.51 228.5,203C 227.112,203.889 227.278,204.389 229,204.5C 230.244,202.424 232.077,201.424 234.5,201.5 Z"/></g>
<g><path style="opacity:1" fill="#efefef" d="M 230.5,208.5 C 232.179,208.285 233.179,208.952 233.5,210.5C 232.791,211.404 231.791,211.737 230.5,211.5C 230.5,210.5 230.5,209.5 230.5,208.5 Z"/></g>
<g><path style="opacity:1" fill="#393536" d="M 230.5,208.5 C 230.5,209.5 230.5,210.5 230.5,211.5C 229.5,211.5 228.5,211.5 227.5,211.5C 227.5,210.5 227.5,209.5 227.5,208.5C 228.5,208.5 229.5,208.5 230.5,208.5 Z"/></g>
<g><path style="opacity:1" fill="#f0f0f0" d="M 223.5,214.5 C 220.431,214.037 219.931,212.704 222,210.5C 224.012,211.566 224.512,212.9 223.5,214.5 Z"/></g>
<g><path style="opacity:1" fill="#eeeeee" d="M 227.5,211.5 C 228.5,211.5 229.5,211.5 230.5,211.5C 230.037,214.569 228.704,215.069 226.5,213C 227.056,212.617 227.389,212.117 227.5,211.5 Z"/></g>
<g><path style="opacity:1" fill="#e9e8e9" d="M 72.5,208.5 C 73.5,208.5 74.5,208.5 75.5,208.5C 76.5981,209.397 76.5981,210.23 75.5,211C 76.448,211.483 77.448,211.649 78.5,211.5C 78.5674,212.959 78.2341,214.292 77.5,215.5C 75.3702,213.873 73.3702,212.04 71.5,210C 72.056,209.617 72.3893,209.117 72.5,208.5 Z"/></g>
<g><path style="opacity:1" fill="#f5f4f4" d="M 78.5,218.5 C 78.5,217.833 78.5,217.167 78.5,216.5C 79.7082,215.218 81.0416,215.218 82.5,216.5C 81.6798,218.111 80.3464,218.778 78.5,218.5 Z"/></g>
<g><path style="opacity:1" fill="#e9e8e8" d="M 220.5,217.5 C 217.043,217.333 216.71,216.333 219.5,214.5C 220.386,215.325 220.719,216.325 220.5,217.5 Z"/></g>
<g><path style="opacity:1" fill="#ececec" d="M 216.5,220.5 C 215.5,220.5 214.5,220.5 213.5,220.5C 213.312,218.897 213.812,217.563 215,216.5C 217.012,217.566 217.512,218.9 216.5,220.5 Z"/></g>
<g><path style="opacity:1" fill="#d6d6d6" d="M 78.5,218.5 C 79.8333,219.5 79.8333,220.5 78.5,221.5C 75.7252,221.166 75.0585,219.833 76.5,217.5C 77.1835,217.863 77.8501,218.196 78.5,218.5 Z"/></g>
<g><path style="opacity:1" fill="#f3f3f3" d="M 213.5,220.5 C 213.5,221.5 213.5,222.5 213.5,223.5C 212.5,223.5 211.5,223.5 210.5,223.5C 210.5,221.5 211.5,220.5 213.5,220.5 Z"/></g>
<g><path style="opacity:1" fill="#eae9e9" d="M 85.5,225.5 C 85.38,226.586 84.7133,227.253 83.5,227.5C 81.8405,226.828 80.5072,225.828 79.5,224.5C 79.8258,222.339 80.8258,220.506 82.5,219C 83.448,218.517 84.448,218.351 85.5,218.5C 85.6495,219.552 85.4828,220.552 85,221.5C 81.7396,223.105 81.9063,224.439 85.5,225.5 Z"/></g>
<g><path style="opacity:1" fill="#484546" d="M 213.5,220.5 C 214.5,220.5 215.5,220.5 216.5,220.5C 216.5,221.5 216.5,222.5 216.5,223.5C 215.5,223.5 214.5,223.5 213.5,223.5C 213.5,222.5 213.5,221.5 213.5,220.5 Z"/></g>
<g><path style="opacity:1" fill="#d8d7d7" d="M 223.5,214.5 C 224.5,214.5 225.5,214.5 226.5,214.5C 226.617,216.484 225.95,218.15 224.5,219.5C 225.127,220.417 225.461,221.417 225.5,222.5C 223.862,223.914 222.528,223.58 221.5,221.5C 220.468,224.193 218.802,224.86 216.5,223.5C 216.5,222.5 216.5,221.5 216.5,220.5C 218.619,220.532 219.952,219.532 220.5,217.5C 221.5,217.5 222.5,217.5 223.5,217.5C 223.5,216.5 223.5,215.5 223.5,214.5 Z"/></g>
<g><path style="opacity:1" fill="#322e2f" d="M 105.5,57.5 C 104.833,58.1667 104.167,58.8333 103.5,59.5C 100.752,59.4017 100.086,60.4017 101.5,62.5C 98.683,62.8005 98.0163,64.1339 99.5,66.5C 97.7118,67.2826 96.7118,68.6159 96.5,70.5C 95.5,70.5 94.5,70.5 93.5,70.5C 92.1667,71.5 92.1667,72.5 93.5,73.5C 93.2627,74.791 93.596,75.791 94.5,76.5C 90.7781,81.2068 86.7781,85.7068 82.5,90C 77.0139,90.8186 74.5139,93.9853 75,99.5C 72.4543,102.037 70.7876,105.037 70,108.5C 68.2644,105.936 67.0978,106.269 66.5,109.5C 67.552,109.351 68.552,109.517 69.5,110C 67.6667,112.5 65.8333,115 64,117.5C 63.6667,120.167 63.3333,122.833 63,125.5C 61.3482,131.052 59.5149,136.552 57.5,142C 58.1667,143.667 58.8333,145.333 59.5,147C 59.0066,152.634 58.0066,158.134 56.5,163.5C 56.1667,163.5 55.8333,163.5 55.5,163.5C 55.5,162.5 55.5,161.5 55.5,160.5C 54.5,160.5 53.5,160.5 52.5,160.5C 53.6616,158.511 54.9949,156.677 56.5,155C 56.2517,153.251 55.2517,152.418 53.5,152.5C 53.5,151.5 53.5,150.5 53.5,149.5C 57.1569,149.026 57.3236,147.693 54,145.5C 53.0943,147.612 51.5943,148.445 49.5,148C 51.607,146.736 52.607,144.903 52.5,142.5C 51.5,142.5 50.5,142.5 49.5,142.5C 49.1119,144.685 48.1119,146.518 46.5,148C 49.3231,149.841 49.1564,151.341 46,152.5C 45.51,153.793 45.3433,155.127 45.5,156.5C 46.5,156.5 47.5,156.5 48.5,156.5C 48.5,157.5 48.5,158.5 48.5,159.5C 47.5,159.5 46.5,159.5 45.5,159.5C 45.0882,161.973 46.0882,163.306 48.5,163.5C 48.6168,165.484 47.9501,167.15 46.5,168.5C 46.8555,169.522 47.5222,170.189 48.5,170.5C 48.5,171.5 48.5,172.5 48.5,173.5C 49.8333,173.5 51.1667,173.5 52.5,173.5C 51.5398,175.461 50.2065,177.127 48.5,178.5C 49.0047,179.919 50.0047,180.585 51.5,180.5C 51.7376,182.404 52.7376,183.738 54.5,184.5C 54.5,185.167 54.5,185.833 54.5,186.5C 52.8235,187.183 52.1568,188.517 52.5,190.5C 53.5,190.5 54.5,190.5 55.5,190.5C 55.6941,192.912 57.0274,193.912 59.5,193.5C 58.7659,194.708 58.4326,196.041 58.5,197.5C 59.5,197.5 60.5,197.5 61.5,197.5C 61.1667,200.5 62.5,201.833 65.5,201.5C 65.5,202.5 65.5,203.5 65.5,204.5C 66.8333,204.5 68.1667,204.5 69.5,204.5C 68.7177,206.451 67.3844,207.951 65.5,209C 66.0779,210.417 67.0779,211.25 68.5,211.5C 69.0478,209.468 70.3812,208.468 72.5,208.5C 72.3893,209.117 72.056,209.617 71.5,210C 73.3702,212.04 75.3702,213.873 77.5,215.5C 77.5,216.167 77.8333,216.5 78.5,216.5C 78.5,217.167 78.5,217.833 78.5,218.5C 77.8501,218.196 77.1835,217.863 76.5,217.5C 75.0585,219.833 75.7252,221.166 78.5,221.5C 78.2627,222.791 78.596,223.791 79.5,224.5C 80.5072,225.828 81.8405,226.828 83.5,227.5C 84.7133,227.253 85.38,226.586 85.5,225.5C 86.5,225.5 87.5,225.5 88.5,225.5C 87.1667,226.5 87.1667,227.5 88.5,228.5C 90.3797,228.771 91.713,228.104 92.5,226.5C 93.4916,226.672 94.1583,226.338 94.5,225.5C 95.1667,224.833 95.8333,224.167 96.5,223.5C 97.9477,225.555 99.281,227.722 100.5,230C 104.5,230.333 108.5,230.667 112.5,231C 115.025,233.291 118.025,234.624 121.5,235C 122.233,237.325 123.733,238.825 126,239.5C 130.233,237.87 134.233,238.203 138,240.5C 140.787,239.483 143.62,239.316 146.5,240C 148.552,243.899 150.886,244.232 153.5,241C 157.028,240.911 160.362,240.244 163.5,239C 167.516,238.814 171.516,238.814 175.5,239C 177.5,237 179.5,235 181.5,233C 184.525,232.867 187.192,231.867 189.5,230C 192.5,229.667 195.5,229.333 198.5,229C 199.056,228.617 199.389,228.117 199.5,227.5C 200.338,227.842 200.672,228.508 200.5,229.5C 199.326,231.368 199.993,232.368 202.5,232.5C 202.694,234.912 204.027,235.912 206.5,235.5C 206.5,234.5 206.5,233.5 206.5,232.5C 208.492,232.672 210.158,232.005 211.5,230.5C 213.009,232.915 214.676,233.081 216.5,231C 214.833,230 213.5,228.667 212.5,227C 211.552,226.517 210.552,226.351 209.5,226.5C 210.11,225.609 210.443,224.609 210.5,223.5C 211.5,223.5 212.5,223.5 213.5,223.5C 212.506,225.854 213.506,226.854 216.5,226.5C 216.5,225.5 216.5,224.5 216.5,223.5C 218.802,224.86 220.468,224.193 221.5,221.5C 222.528,223.58 223.862,223.914 225.5,222.5C 226.167,222.5 226.5,222.833 226.5,223.5C 222.696,226.472 219.363,229.972 216.5,234C 210.9,234.453 207.234,237.286 205.5,242.5C 200.598,243.073 196.598,245.239 193.5,249C 190.464,249.638 187.464,249.472 184.5,248.5C 180.383,249.699 176.55,251.365 173,253.5C 170.149,252.912 167.315,252.245 164.5,251.5C 162.111,253.059 159.611,254.393 157,255.5C 154.667,254.833 152.333,254.167 150,253.5C 147.667,254.167 145.333,254.833 143,255.5C 137.945,254.044 132.778,253.21 127.5,253C 125.205,251.736 122.871,250.57 120.5,249.5C 115.607,251.421 111.607,250.254 108.5,246C 106.167,245.667 103.833,245.333 101.5,245C 99.7433,242.154 97.7433,239.488 95.5,237C 89.9587,237.837 85.9587,235.837 83.5,231C 81.8333,230.167 80.1667,229.333 78.5,228.5C 77.1724,225.176 75.339,222.176 73,219.5C 67.9639,218.464 64.9639,215.464 64,210.5C 62,209.167 60,207.833 58,206.5C 58.7138,199.934 56.3804,194.934 51,191.5C 50.8184,188.774 50.3184,186.107 49.5,183.5C 47.8539,182.221 46.6872,180.555 46,178.5C 44.7345,169.011 43.5678,159.511 42.5,150C 43.5619,146.969 44.5619,143.969 45.5,141C 42.4698,136.033 42.9698,131.533 47,127.5C 46.3825,122.173 48.0491,117.84 52,114.5C 51.8724,111.514 51.8724,108.514 52,105.5C 55.8032,102.374 57.8032,98.3736 58,93.5C 60.8349,92.0836 63.5015,90.417 66,88.5C 67.5744,85.6777 69.0744,82.8444 70.5,80C 74.6921,79.4781 77.3588,77.1447 78.5,73C 84.5185,71.6491 89.1852,68.3158 92.5,63C 95.8516,62.9957 98.185,61.4957 99.5,58.5C 101.396,57.5344 103.396,57.2011 105.5,57.5 Z"/></g>
<g><path style="opacity:1" fill="#f1f1f1" d="M 94.5,225.5 C 93.0047,225.585 92.0047,224.919 91.5,223.5C 93.3957,222.361 94.3957,223.027 94.5,225.5 Z"/></g>
<g><path style="opacity:1" fill="#e6e6e6" d="M 88.5,225.5 C 87.5,225.5 86.5,225.5 85.5,225.5C 85.2222,223.654 85.8888,222.32 87.5,221.5C 88.4287,222.689 88.762,224.022 88.5,225.5 Z"/></g>
<g><path style="opacity:1" fill="#e9e9e9" d="M 68.5,211.5 C 71.1662,211.066 72.3329,212.066 72,214.5C 68.4034,216.066 67.2368,215.066 68.5,211.5 Z"/></g>
<g><path style="opacity:1" fill="#dddcdc" d="M 65.5,204.5 C 65.5,205.5 65.5,206.5 65.5,207.5C 61.4588,207.426 60.7921,206.093 63.5,203.5C 64.1835,203.863 64.8501,204.196 65.5,204.5 Z"/></g>
<g><path style="opacity:1" fill="#e0dfe0" d="M 52.5,142.5 C 52.607,144.903 51.607,146.736 49.5,148C 51.5943,148.445 53.0943,147.612 54,145.5C 57.3236,147.693 57.1569,149.026 53.5,149.5C 53.5,150.5 53.5,151.5 53.5,152.5C 55.2517,152.418 56.2517,153.251 56.5,155C 54.9949,156.677 53.6616,158.511 52.5,160.5C 50.3812,160.468 49.0478,161.468 48.5,163.5C 46.0882,163.306 45.0882,161.973 45.5,159.5C 46.5,159.5 47.5,159.5 48.5,159.5C 48.5,158.5 48.5,157.5 48.5,156.5C 47.5,156.5 46.5,156.5 45.5,156.5C 45.3433,155.127 45.51,153.793 46,152.5C 49.1564,151.341 49.3231,149.841 46.5,148C 48.1119,146.518 49.1119,144.685 49.5,142.5C 50.5,142.5 51.5,142.5 52.5,142.5 Z"/></g>
<g><path style="opacity:1" fill="#403c3d" d="M 53.5,152.5 C 53.2035,156.395 51.8701,157.062 49.5,154.5C 50.5769,153.295 51.9102,152.628 53.5,152.5 Z"/></g>
<g><path style="opacity:1" fill="#f5f5f5" d="M 52.5,139.5 C 53.5,139.5 54.5,139.5 55.5,139.5C 55.8795,142.567 54.8795,143.567 52.5,142.5C 52.5,141.5 52.5,140.5 52.5,139.5 Z"/></g>
<g><path style="opacity:1" fill="#eeeeee" d="M 52.5,135.5 C 52.5,136.833 52.5,138.167 52.5,139.5C 50.6536,139.778 49.3202,139.111 48.5,137.5C 49.3202,135.889 50.6536,135.222 52.5,135.5 Z"/></g>
<g><path style="opacity:1" fill="#f5f5f5" d="M 52.5,132.5 C 53.8333,132.5 55.1667,132.5 56.5,132.5C 56.7332,135.954 55.3999,136.954 52.5,135.5C 51.1667,134.5 51.1667,133.5 52.5,132.5 Z"/></g>
<g><path style="opacity:1" fill="#666364" d="M 55.5,129.5 C 55.5569,130.609 55.8902,131.609 56.5,132.5C 55.1667,132.5 53.8333,132.5 52.5,132.5C 52.8564,130.81 53.8564,129.81 55.5,129.5 Z"/></g>
<g><path style="opacity:1" fill="#dddcdc" d="M 56.5,132.5 C 55.8902,131.609 55.5569,130.609 55.5,129.5C 58.3714,128.014 59.7047,129.014 59.5,132.5C 58.5,132.5 57.5,132.5 56.5,132.5 Z"/></g>
<g><path style="opacity:1" fill="#eae9ea" d="M 55.5,129.5 C 53.8564,129.81 52.8564,130.81 52.5,132.5C 50.3281,133.801 47.9948,134.801 45.5,135.5C 45.3505,134.448 45.5172,133.448 46,132.5C 48.2372,129.988 50.7372,127.821 53.5,126C 56.332,125.826 56.9987,126.993 55.5,129.5 Z"/></g>
<g><path style="opacity:1" fill="#f3f3f3" d="M 56.5,122.5 C 59.1662,122.066 60.3329,123.066 60,125.5C 58.1291,126.668 56.6291,126.168 55.5,124C 56.056,123.617 56.3893,123.117 56.5,122.5 Z"/></g>
<g><path style="opacity:1" fill="#ebebeb" d="M 59.5,119.5 C 60.5,119.5 61.5,119.5 62.5,119.5C 61.7542,123.31 60.7542,123.31 59.5,119.5 Z"/></g>
<g><path style="opacity:1" fill="#efefef" d="M 56.5,118.5 C 56.5,119.833 56.5,121.167 56.5,122.5C 54.3281,123.801 51.9948,124.801 49.5,125.5C 49.3505,124.448 49.5172,123.448 50,122.5C 51.5,121.667 52.6667,120.5 53.5,119C 54.448,118.517 55.448,118.351 56.5,118.5 Z"/></g>
<g><path style="opacity:1" fill="#423f40" d="M 56.5,112.5 C 57.397,113.598 58.2303,113.598 59,112.5C 59.4828,113.448 59.6495,114.448 59.5,115.5C 58.5,115.5 57.5,115.5 56.5,115.5C 56.5,114.5 56.5,113.5 56.5,112.5 Z"/></g>
<g><path style="opacity:1" fill="#ececec" d="M 56.5,112.5 C 56.5,113.5 56.5,114.5 56.5,115.5C 53.8333,114.5 53.8333,113.5 56.5,112.5 Z"/></g>
<g><path style="opacity:1" fill="#e9e9e9" d="M 67.5,102.5 C 67.756,104.912 66.756,106.579 64.5,107.5C 64.8555,108.522 65.5222,109.189 66.5,109.5C 66.037,112.569 64.7037,113.069 62.5,111C 62.8333,110.667 63.1667,110.333 63.5,110C 62.552,109.517 61.552,109.351 60.5,109.5C 61.8011,111.672 62.8011,114.005 63.5,116.5C 61.3812,116.468 60.0478,117.468 59.5,119.5C 58.391,119.443 57.391,119.11 56.5,118.5C 56.5,117.5 56.5,116.5 56.5,115.5C 57.5,115.5 58.5,115.5 59.5,115.5C 59.6495,114.448 59.4828,113.448 59,112.5C 58.2303,113.598 57.397,113.598 56.5,112.5C 55.1667,111.167 55.1667,109.833 56.5,108.5C 58.7338,107.296 61.0671,106.13 63.5,105C 62.1667,104.333 62.1667,103.667 63.5,103C 62.552,102.517 61.552,102.351 60.5,102.5C 59.0003,100.491 59.5003,99.1576 62,98.5C 63.6773,100.005 65.5106,101.338 67.5,102.5 Z"/></g>
<g><path style="opacity:1" fill="#e7e6e6" d="M 56.5,108.5 C 54.5354,108.052 54.2021,107.052 55.5,105.5C 56.3857,106.325 56.719,107.325 56.5,108.5 Z"/></g>
<g><path style="opacity:1" fill="#f0efef" d="M 60.5,102.5 C 59.2458,106.31 58.2458,106.31 57.5,102.5C 58.5,102.5 59.5,102.5 60.5,102.5 Z"/></g>
<g><path style="opacity:1" fill="#f5f5f5" d="M 67.5,102.5 C 67.2222,100.654 67.8888,99.3202 69.5,98.5C 71.1112,99.3202 71.7778,100.654 71.5,102.5C 70.1667,102.5 68.8333,102.5 67.5,102.5 Z"/></g>
<g><path style="opacity:1" fill="#f1f1f1" d="M 71.5,95.5 C 72.5,95.5 73.5,95.5 74.5,95.5C 74.3352,99.8638 73.0019,100.364 70.5,97C 71.056,96.6174 71.3893,96.1174 71.5,95.5 Z"/></g>
<g><path style="opacity:1" fill="#f1f1f1" d="M 68.5,95.5 C 67.5924,99.6431 65.9257,100.143 63.5,97C 64.7405,94.5274 66.4071,94.0274 68.5,95.5 Z"/></g>
<g><path style="opacity:1" fill="#f2f2f2" d="M 72.5,92.5 C 72.4431,93.609 72.1098,94.609 71.5,95.5C 70.5,95.5 69.5,95.5 68.5,95.5C 67.3743,91.7321 68.7077,90.7321 72.5,92.5 Z"/></g>
<g><path style="opacity:1" fill="#eeeded" d="M 72.5,88.5 C 73.5,88.5 74.5,88.5 75.5,88.5C 75.5,89.8333 75.5,91.1667 75.5,92.5C 74.5,92.5 73.5,92.5 72.5,92.5C 71.5946,91.0357 71.5946,89.7024 72.5,88.5 Z"/></g>
<g><path style="opacity:1" fill="#595657" d="M 72.5,85.5 C 73.5,85.5 74.5,85.5 75.5,85.5C 75.5,86.5 75.5,87.5 75.5,88.5C 74.5,88.5 73.5,88.5 72.5,88.5C 73.8333,87.5 73.8333,86.5 72.5,85.5 Z"/></g>
<g><path style="opacity:1" fill="#dddcdc" d="M 72.5,85.5 C 73.8333,86.5 73.8333,87.5 72.5,88.5C 68.69,87.7542 68.69,86.7542 72.5,85.5 Z"/></g>
<g><path style="opacity:1" fill="#605d5e" d="M 76.5,82.5 C 77.552,82.3505 78.552,82.5172 79.5,83C 78.1667,83.6667 78.1667,84.3333 79.5,85C 78.2068,85.49 76.8734,85.6567 75.5,85.5C 76.1098,84.609 76.4431,83.609 76.5,82.5 Z"/></g>
<g><path style="opacity:1" fill="#e1e0e0" d="M 86.5,73.5 C 86.5,74.5 86.5,75.5 86.5,76.5C 85.6236,76.3691 84.9569,76.7025 84.5,77.5C 85.5,78.8333 86.5,80.1667 87.5,81.5C 86.9653,83.1013 85.9653,83.6013 84.5,83C 83.3816,81.9264 82.3816,80.7598 81.5,79.5C 81.1667,79.8333 80.8333,80.1667 80.5,80.5C 81.8333,82.1667 83.1667,83.8333 84.5,85.5C 81.8619,88.2556 78.8619,89.2556 75.5,88.5C 75.5,87.5 75.5,86.5 75.5,85.5C 76.8734,85.6567 78.2068,85.49 79.5,85C 78.1667,84.3333 78.1667,83.6667 79.5,83C 78.552,82.5172 77.552,82.3505 76.5,82.5C 77.8802,77.4696 81.2136,74.4696 86.5,73.5 Z"/></g>
<g><path style="opacity:1" fill="#f6f6f6" d="M 76.5,82.5 C 76.4431,83.609 76.1098,84.609 75.5,85.5C 74.5,85.5 73.5,85.5 72.5,85.5C 72.2668,82.0464 73.6001,81.0464 76.5,82.5 Z"/></g>
<g><path style="opacity:1" fill="#f5f5f5" d="M 86.5,76.5 C 87.5,76.5 88.5,76.5 89.5,76.5C 89.7567,81.8416 88.7567,81.8416 86.5,76.5 Z"/></g>
<g><path style="opacity:1" fill="#f7f7f7" d="M 89.5,76.5 C 89.4148,75.0047 90.0815,74.0047 91.5,73.5C 92.8333,74.8333 92.8333,76.1667 91.5,77.5C 90.8165,77.1373 90.1499,76.8039 89.5,76.5 Z"/></g>
<g><path style="opacity:1" fill="#eeedee" d="M 90.5,70.5 C 90.0897,73.2923 88.7564,74.2923 86.5,73.5C 86.6941,71.0882 88.0274,70.0882 90.5,70.5 Z"/></g>
<g><path style="opacity:1" fill="#ededed" d="M 93.5,70.5 C 92.5,70.5 91.5,70.5 90.5,70.5C 90.963,67.4312 92.2963,66.9312 94.5,69C 93.944,69.3826 93.6107,69.8826 93.5,70.5 Z"/></g>
<g><path style="opacity:1" fill="#f8f8f8" d="M 93.5,64.5 C 97.1611,64.4257 97.8277,65.4257 95.5,67.5C 94.0815,66.9953 93.4148,65.9953 93.5,64.5 Z"/></g>
<g><path style="opacity:1" fill="#efefef" d="M 210.5,223.5 C 210.443,224.609 210.11,225.609 209.5,226.5C 208.5,226.5 207.5,226.5 206.5,226.5C 206.295,223.014 207.629,222.014 210.5,223.5 Z"/></g>
<g><path style="opacity:1" fill="#f0f0f0" d="M 213.5,223.5 C 214.5,223.5 215.5,223.5 216.5,223.5C 216.5,224.5 216.5,225.5 216.5,226.5C 213.506,226.854 212.506,225.854 213.5,223.5 Z"/></g>
<g><path style="opacity:1" fill="#f3f3f3" d="M 88.5,225.5 C 89.9587,225.433 91.2921,225.766 92.5,226.5C 91.713,228.104 90.3797,228.771 88.5,228.5C 87.1667,227.5 87.1667,226.5 88.5,225.5 Z"/></g>
<g><path style="opacity:1" fill="#e9e8e9" d="M 206.5,226.5 C 206.5,227.5 206.5,228.5 206.5,229.5C 205.5,229.5 204.5,229.5 203.5,229.5C 202.167,226.167 203.167,225.167 206.5,226.5 Z"/></g>
<g><path style="opacity:1" fill="#f0eff0" d="M 88.5,228.5 C 88.3328,231.957 87.3328,232.29 85.5,229.5C 86.325,228.614 87.325,228.281 88.5,228.5 Z"/></g>
<g><path style="opacity:1" fill="#5a5757" d="M 206.5,226.5 C 207.5,226.5 208.5,226.5 209.5,226.5C 209.5,227.5 209.5,228.5 209.5,229.5C 208.5,229.5 207.5,229.5 206.5,229.5C 206.5,228.5 206.5,227.5 206.5,226.5 Z"/></g>
<g><path style="opacity:1" fill="#efeeee" d="M 200.5,229.5 C 201.5,229.5 202.5,229.5 203.5,229.5C 203.443,230.609 203.11,231.609 202.5,232.5C 199.993,232.368 199.326,231.368 200.5,229.5 Z"/></g>
<g><path style="opacity:1" fill="#e2e2e2" d="M 209.5,226.5 C 210.552,226.351 211.552,226.517 212.5,227C 213.5,228.667 214.833,230 216.5,231C 214.676,233.081 213.009,232.915 211.5,230.5C 210.158,232.005 208.492,232.672 206.5,232.5C 205.167,231.5 205.167,230.5 206.5,229.5C 207.5,229.5 208.5,229.5 209.5,229.5C 209.5,228.5 209.5,227.5 209.5,226.5 Z"/></g>
<g><path style="opacity:1" fill="#686566" d="M 203.5,229.5 C 204.5,229.5 205.5,229.5 206.5,229.5C 205.167,230.5 205.167,231.5 206.5,232.5C 205.167,232.5 203.833,232.5 202.5,232.5C 203.11,231.609 203.443,230.609 203.5,229.5 Z"/></g>
<g><path style="opacity:1" fill="#d6d5d5" d="M 104.5,235.5 C 103.603,236.598 102.77,236.598 102,235.5C 101.517,236.448 101.351,237.448 101.5,238.5C 99.0882,238.306 98.0882,236.973 98.5,234.5C 99.7997,233.892 101.133,233.225 102.5,232.5C 105.029,232.65 105.695,233.65 104.5,235.5 Z"/></g>
<g><path style="opacity:1" fill="#f0f0f0" d="M 202.5,238.5 C 201.448,238.649 200.448,238.483 199.5,238C 198.167,237.333 198.167,236.667 199.5,236C 198.099,235.59 196.766,235.09 195.5,234.5C 195.511,232.314 196.511,231.481 198.5,232C 200.167,233.667 201.833,235.333 203.5,237C 202.944,237.383 202.611,237.883 202.5,238.5 Z"/></g>
<g><path style="opacity:1" fill="#f6f6f6" d="M 202.5,232.5 C 203.833,232.5 205.167,232.5 206.5,232.5C 206.5,233.5 206.5,234.5 206.5,235.5C 204.027,235.912 202.694,234.912 202.5,232.5 Z"/></g>
<g><path style="opacity:1" fill="#c4c3c3" d="M 98.5,234.5 C 96.1691,234.502 94.1691,233.669 92.5,232C 91.1667,229.667 91.8333,228.667 94.5,229C 96.2102,230.651 97.5436,232.484 98.5,234.5 Z"/></g>
<g><path style="opacity:1" fill="#ececec" d="M 107.5,235.5 C 107.948,233.535 108.948,233.202 110.5,234.5C 109.867,236.519 108.867,236.853 107.5,235.5 Z"/></g>
<g><path style="opacity:1" fill="#f5f5f5" d="M 192.5,232.5 C 192.5,234.5 191.5,235.5 189.5,235.5C 189.5,234.5 189.5,233.5 189.5,232.5C 190.5,232.5 191.5,232.5 192.5,232.5 Z"/></g>
<g><path style="opacity:1" fill="#6e6b6c" d="M 192.5,232.5 C 193.222,233.551 194.222,234.218 195.5,234.5C 196.766,235.09 198.099,235.59 199.5,236C 198.167,236.667 198.167,237.333 199.5,238C 200.448,238.483 201.448,238.649 202.5,238.5C 202.5,239.167 202.167,239.5 201.5,239.5C 200.833,239.5 200.167,239.5 199.5,239.5C 196.167,238.167 195.167,239.167 196.5,242.5C 196.167,242.5 195.833,242.5 195.5,242.5C 193.468,241.952 192.468,240.619 192.5,238.5C 191.127,238.657 189.793,238.49 188.5,238C 189.252,237.329 189.586,236.496 189.5,235.5C 191.5,235.5 192.5,234.5 192.5,232.5 Z"/></g>
<g><path style="opacity:1" fill="#f6f6f6" d="M 192.5,238.5 C 192.5,237.5 192.5,236.5 192.5,235.5C 196.864,235.665 197.364,236.998 194,239.5C 193.617,238.944 193.117,238.611 192.5,238.5 Z"/></g>
<g><path style="opacity:1" fill="#3b3738" d="M 104.5,235.5 C 104.5,236.5 104.5,237.5 104.5,238.5C 103.5,238.5 102.5,238.5 101.5,238.5C 101.351,237.448 101.517,236.448 102,235.5C 102.77,236.598 103.603,236.598 104.5,235.5 Z"/></g>
<g><path style="opacity:1" fill="#e6e6e6" d="M 104.5,235.5 C 105.5,235.5 106.5,235.5 107.5,235.5C 107.5,236.5 107.5,237.5 107.5,238.5C 106.5,239.833 105.5,239.833 104.5,238.5C 104.5,237.5 104.5,236.5 104.5,235.5 Z"/></g>
<g><path style="opacity:1" fill="#f3f3f3" d="M 110.5,236.5 C 111.5,236.5 112.5,236.5 113.5,236.5C 112.754,240.31 111.754,240.31 110.5,236.5 Z"/></g>
<g><path style="opacity:1" fill="#eeeeee" d="M 182.5,238.5 C 179.203,238.671 178.869,238.005 181.5,236.5C 182.298,236.957 182.631,237.624 182.5,238.5 Z"/></g>
<g><path style="opacity:1" fill="#e8e8e8" d="M 101.5,238.5 C 102.5,238.5 103.5,238.5 104.5,238.5C 103.5,243.833 102.5,243.833 101.5,238.5 Z"/></g>
<g><path style="opacity:1" fill="#f5f5f5" d="M 199.5,239.5 C 199.5,241.5 198.5,242.5 196.5,242.5C 195.167,239.167 196.167,238.167 199.5,239.5 Z"/></g>
<g><path style="opacity:1" fill="#d8d8d8" d="M 202.5,238.5 C 204.048,238.821 204.715,239.821 204.5,241.5C 202.821,241.715 201.821,241.048 201.5,239.5C 202.167,239.5 202.5,239.167 202.5,238.5 Z"/></g>
<g><path style="opacity:1" fill="#f2f2f2" d="M 107.5,238.5 C 110.292,238.91 111.292,240.244 110.5,242.5C 108.088,242.306 107.088,240.973 107.5,238.5 Z"/></g>
<g><path style="opacity:1" fill="#efefef" d="M 114.5,243.5 C 113.516,239.324 114.516,238.824 117.5,242C 116.756,243.039 115.756,243.539 114.5,243.5 Z"/></g>
<g><path style="opacity:1" fill="#eeeeee" d="M 110.5,242.5 C 111.959,242.433 113.292,242.766 114.5,243.5C 114.5,244.167 114.5,244.833 114.5,245.5C 112.027,245.912 110.694,244.912 110.5,242.5 Z"/></g>
<g><path style="opacity:1" fill="#e5e5e5" d="M 138.5,245.5 C 137.167,245.5 135.833,245.5 134.5,245.5C 134.222,243.654 134.889,242.32 136.5,241.5C 138.111,242.32 138.778,243.654 138.5,245.5 Z"/></g>
<g><path style="opacity:1" fill="#d9d8d8" d="M 175.5,244.5 C 173.381,244.468 172.048,245.468 171.5,247.5C 170.5,247.5 169.5,247.5 168.5,247.5C 168.5,246.5 168.5,245.5 168.5,244.5C 167.5,244.5 166.5,244.5 165.5,244.5C 163.756,242.394 164.256,241.061 167,240.5C 168.584,240.988 169.751,241.988 170.5,243.5C 171.842,241.995 173.508,241.328 175.5,241.5C 175.5,242.5 175.5,243.5 175.5,244.5 Z"/></g>
<g><path style="opacity:1" fill="#e4e4e4" d="M 131.5,242.5 C 130.255,244.488 128.922,246.488 127.5,248.5C 126.448,248.649 125.448,248.483 124.5,248C 123.667,246.5 122.5,245.333 121,244.5C 119.901,247.044 118.735,247.044 117.5,244.5C 118.311,243.784 118.978,242.95 119.5,242C 118.491,240.832 117.491,239.665 116.5,238.5C 117.403,236.38 118.737,236.046 120.5,237.5C 121.711,238.274 121.711,239.107 120.5,240C 123.102,240.883 125.269,242.383 127,244.5C 127.483,243.552 127.649,242.552 127.5,241.5C 129.099,241.232 130.432,241.566 131.5,242.5 Z"/></g>
<g><path style="opacity:1" fill="#f4f4f4" d="M 165.5,244.5 C 165.306,246.912 163.973,247.912 161.5,247.5C 161.267,244.046 162.6,243.046 165.5,244.5 Z"/></g>
<g><path style="opacity:1" fill="#e5e4e5" d="M 189.5,235.5 C 189.586,236.496 189.252,237.329 188.5,238C 189.793,238.49 191.127,238.657 192.5,238.5C 192.468,240.619 193.468,241.952 195.5,242.5C 195.25,243.922 194.417,244.922 193,245.5C 192.221,244.272 191.221,243.272 190,242.5C 188.97,242.836 188.47,243.503 188.5,244.5C 186.198,245.86 184.532,245.193 183.5,242.5C 181.731,244.606 179.565,246.272 177,247.5C 174.72,247.106 174.22,246.106 175.5,244.5C 176.5,244.5 177.5,244.5 178.5,244.5C 178.5,243.5 178.5,242.5 178.5,241.5C 180.619,241.532 181.952,240.532 182.5,238.5C 184.377,238.9 185.877,239.9 187,241.5C 187.5,241.333 188,241.167 188.5,241C 187.167,239.667 185.833,238.333 184.5,237C 185.905,235.731 187.571,235.231 189.5,235.5 Z"/></g>
<g><path style="opacity:1" fill="#f5f4f5" d="M 133.5,245.5 C 133.833,245.5 134.167,245.5 134.5,245.5C 135.512,247.1 135.012,248.434 133,249.5C 132.617,248.944 132.117,248.611 131.5,248.5C 131.285,246.821 131.952,245.821 133.5,245.5 Z"/></g>
<g><path style="opacity:1" fill="#f5f5f5" d="M 188.5,244.5 C 192.31,245.754 192.31,246.754 188.5,247.5C 188.5,246.5 188.5,245.5 188.5,244.5 Z"/></g>
<g><path style="opacity:1" fill="#e5e5e5" d="M 114.5,245.5 C 118.31,246.754 118.31,247.754 114.5,248.5C 114.5,247.5 114.5,246.5 114.5,245.5 Z"/></g>
<g><path style="opacity:1" fill="#e3e2e2" d="M 147.5,249.5 C 145.512,248.255 143.512,246.922 141.5,245.5C 141.38,242.795 142.38,242.128 144.5,243.5C 145.5,244.5 146.5,245.5 147.5,246.5C 148.653,247.687 148.653,248.687 147.5,249.5 Z"/></g>
<g><path style="opacity:1" fill="#949292" d="M 165.5,244.5 C 166.5,244.5 167.5,244.5 168.5,244.5C 168.5,245.5 168.5,246.5 168.5,247.5C 168.38,248.586 167.713,249.253 166.5,249.5C 164.747,248.421 163.081,248.421 161.5,249.5C 161.5,248.833 161.5,248.167 161.5,247.5C 163.973,247.912 165.306,246.912 165.5,244.5 Z"/></g>
<g><path style="opacity:1" fill="#302d2e" d="M 89.5,247.5 C 94.8261,249.495 99.4927,252.495 103.5,256.5C 101.233,263.166 100.066,262.832 100,255.5C 98.3333,254.167 96.6667,252.833 95,251.5C 92.4289,253.976 90.9289,256.976 90.5,260.5C 92.7224,260.822 94.5557,260.155 96,258.5C 95.2677,261.299 93.9343,263.966 92,266.5C 90.9529,260.308 88.9529,259.975 86,265.5C 85.1751,267.701 85.6751,269.534 87.5,271C 90.9926,272.004 94.1592,271.504 97,269.5C 96.5993,272.101 95.0993,274.101 92.5,275.5C 87.3318,272.081 81.9984,268.915 76.5,266C 77.938,265.781 79.2713,265.281 80.5,264.5C 84.0058,259.023 87.0058,253.356 89.5,247.5 Z"/></g>
<g><path style="opacity:1" fill="#f9f9f9" d="M 171.5,247.5 C 176.833,248.5 176.833,249.5 171.5,250.5C 171.5,249.5 171.5,248.5 171.5,247.5 Z"/></g>
<g><path style="opacity:1" fill="#787676" d="M 131.5,242.5 C 132.401,243.29 133.068,244.29 133.5,245.5C 131.952,245.821 131.285,246.821 131.5,248.5C 129.821,248.285 128.821,248.952 128.5,250.5C 127.662,250.158 127.328,249.492 127.5,248.5C 128.922,246.488 130.255,244.488 131.5,242.5 Z"/></g>
<g><path style="opacity:1" fill="#e6e5e5" d="M 131.5,248.5 C 131.598,251.248 130.598,251.914 128.5,250.5C 128.821,248.952 129.821,248.285 131.5,248.5 Z"/></g>
<g><path style="opacity:1" fill="#dddddd" d="M 138.5,245.5 C 139.167,245.5 139.833,245.5 140.5,245.5C 141.833,246.833 141.833,248.167 140.5,249.5C 139.265,249.721 138.265,250.388 137.5,251.5C 136.914,251.291 136.414,250.957 136,250.5C 136.464,248.807 137.297,247.14 138.5,245.5 Z"/></g>
<g><path style="opacity:1" fill="#eeeeee" d="M 145.5,250.5 C 144.462,252.519 143.128,252.853 141.5,251.5C 142.062,247.932 143.395,247.598 145.5,250.5 Z"/></g>
<g><path style="opacity:1" fill="#716e6f" d="M 140.5,245.5 C 140.833,245.5 141.167,245.5 141.5,245.5C 143.512,246.922 145.512,248.255 147.5,249.5C 147.158,250.338 146.492,250.672 145.5,250.5C 143.395,247.598 142.062,247.932 141.5,251.5C 140.662,251.158 140.328,250.492 140.5,249.5C 141.833,248.167 141.833,246.833 140.5,245.5 Z"/></g>
<g><path style="opacity:1" fill="#e0dfdf" d="M 161.5,247.5 C 161.5,248.167 161.5,248.833 161.5,249.5C 159.648,250.518 157.981,251.851 156.5,253.5C 154.596,251.678 152.596,250.012 150.5,248.5C 152.666,244.854 154.666,245.187 156.5,249.5C 156.833,249.167 157.167,248.833 157.5,248.5C 156.5,247.167 155.5,245.833 154.5,244.5C 155,244.167 155.5,243.833 156,243.5C 157.677,245.005 159.511,246.338 161.5,247.5 Z"/></g>
<g><path style="opacity:1" fill="#2b2728" d="M 213.5,245.5 C 219.684,251.81 218.851,253.477 211,250.5C 206.35,250.236 203.85,252.402 203.5,257C 204.176,261.685 206.176,265.685 209.5,269C 213.692,271.295 217.359,270.628 220.5,267C 219.18,264.683 217.514,262.683 215.5,261C 217.833,259.5 220.167,258 222.5,256.5C 222.826,259.3 223.326,262.3 224,265.5C 217.701,273.058 210.367,274.391 202,269.5C 196.435,257.294 200.268,250.294 213.5,248.5C 213.5,247.5 213.5,246.5 213.5,245.5 Z"/></g>
<g><path style="opacity:1" fill="#2c2829" d="M 104.5,279.5 C 106.199,279.66 107.866,279.494 109.5,279C 110.059,278.275 110.392,277.442 110.5,276.5C 108.96,272.787 106.793,269.453 104,266.5C 102.294,260.894 104.294,257.894 110,257.5C 112.933,258.279 115.766,259.279 118.5,260.5C 118.313,262.564 117.813,264.564 117,266.5C 116.148,260.946 113.148,258.612 108,259.5C 107.333,260.833 107.333,262.167 108,263.5C 111.721,266.207 114.221,269.707 115.5,274C 114.071,280.304 110.404,282.137 104.5,279.5 Z"/></g>
<g><path style="opacity:1" fill="#2c2829" d="M 120.5,261.5 C 120.735,260.903 121.235,260.57 122,260.5C 127.564,261.542 132.897,263.209 138,265.5C 139.615,270.09 138.115,272.923 133.5,274C 137.925,276.549 138.592,279.882 135.5,284C 133.634,284.985 131.634,285.485 129.5,285.5C 125.194,284.566 120.861,283.733 116.5,283C 117.416,282.626 118.25,282.126 119,281.5C 120.551,276.08 121.717,270.58 122.5,265C 122.392,263.319 121.725,262.152 120.5,261.5 Z"/></g>
<g><path style="opacity:1" fill="#d7d7d7" d="M 128.5,263.5 C 133.012,263.869 134.512,266.202 133,270.5C 131.211,272.229 129.044,272.896 126.5,272.5C 126.916,269.417 127.583,266.417 128.5,263.5 Z"/></g>
<g><path style="opacity:1" fill="#2c2829" d="M 185.5,258.5 C 188.807,258.063 191.807,258.73 194.5,260.5C 195.046,261.772 195.379,263.106 195.5,264.5C 195.079,266.658 194.579,268.658 194,270.5C 196.906,273.037 200.073,275.204 203.5,277C 200.923,278.25 198.257,278.584 195.5,278C 192.64,275.64 189.64,273.473 186.5,271.5C 186.167,271.833 185.833,272.167 185.5,272.5C 186.792,274.667 187.625,277 188,279.5C 189.067,280.191 190.234,280.691 191.5,281C 188.568,282.145 185.568,282.978 182.5,283.5C 181.934,277.295 180.434,271.295 178,265.5C 176.951,263.893 175.451,263.227 173.5,263.5C 173.97,267.97 172.97,268.47 170.5,265C 168.19,264.503 165.857,264.337 163.5,264.5C 163.5,267.5 163.5,270.5 163.5,273.5C 166.635,273.452 168.302,271.785 168.5,268.5C 169.707,272.112 170.207,275.779 170,279.5C 169.125,276.785 167.292,275.452 164.5,275.5C 164.963,278.482 165.296,281.482 165.5,284.5C 170.957,285.026 174.457,282.693 176,277.5C 176.497,279.81 176.663,282.143 176.5,284.5C 170.833,285.167 165.167,285.833 159.5,286.5C 159.553,279.421 158.887,272.421 157.5,265.5C 155.856,265.286 154.356,265.62 153,266.5C 152.871,272.914 152.204,279.247 151,285.5C 145.849,288.901 142.016,287.901 139.5,282.5C 140.519,278.813 141.852,278.646 143.5,282C 143.265,282.873 142.931,283.707 142.5,284.5C 144.006,285.747 145.506,285.747 147,284.5C 147.81,277.918 147.643,271.418 146.5,265C 156.186,264.161 165.853,263.161 175.5,262C 178.98,260.897 182.313,259.731 185.5,258.5 Z"/></g>
<g><path style="opacity:1" fill="#e4e4e4" d="M 184.5,260.5 C 189.846,261.013 191.513,263.847 189.5,269C 187.975,270.009 186.308,270.509 184.5,270.5C 184.452,267.687 183.785,265.021 182.5,262.5C 183.243,261.818 183.909,261.151 184.5,260.5 Z"/></g>
<g><path style="opacity:1" fill="#413d3e" d="M 104.5,279.5 C 102.685,278.37 100.685,277.704 98.5,277.5C 98.4354,274.529 99.2687,271.862 101,269.5C 101.013,273.305 102.179,276.638 104.5,279.5 Z"/></g>
<g><path style="opacity:1" fill="#dfdede" d="M 126.5,273.5 C 133.01,275.053 134.01,278.219 129.5,283C 128.207,283.49 126.873,283.657 125.5,283.5C 125.253,280.061 125.586,276.728 126.5,273.5 Z"/></g>
</svg>
