<?xml version="1.0" standalone="no"?>
<!DOCTYPE svg PUBLIC "-//W3C//DTD SVG 20010904//EN"
 "http://www.w3.org/TR/2001/REC-SVG-20010904/DTD/svg10.dtd">
<svg version="1.0" xmlns="http://www.w3.org/2000/svg"
 width="296.000000pt" height="296.000000pt" viewBox="0 0 296.000000 296.000000"
 preserveAspectRatio="xMidYMid meet">

<g transform="translate(0.000000,296.000000) scale(0.100000,-0.100000)"
fill="#000000" stroke="none">
<path d="M1346 2840 c13 -5 24 -21 28 -40 8 -41 8 -183 0 -204 -10 -27 -39
-18 -98 30 l-56 46 20 25 c24 30 25 61 5 90 -23 32 -54 34 -156 9 -52 -13 -86
-24 -77 -25 18 -1 29 -30 64 -174 16 -65 16 -68 -2 -82 -15 -11 -5 -10 49 3
50 12 63 18 49 23 -20 8 -48 91 -36 110 3 5 32 -13 63 -40 l58 -50 86 6 c81 6
84 7 66 22 -18 14 -20 26 -17 110 l3 94 95 -114 95 -113 2 45 c2 24 4 88 5
142 3 96 3 97 -21 97 -19 0 -21 -3 -12 -14 7 -9 11 -40 9 -81 l-3 -66 -65 80
-65 80 -55 0 c-40 0 -49 -3 -34 -9z m-168 -63 c23 -27 24 -65 3 -86 -35 -35
-57 -27 -70 23 -17 70 -15 76 23 76 18 0 38 -6 44 -13z"/>
<path d="M1694 2828 c18 -14 18 -17 -5 -124 -12 -60 -28 -116 -35 -125 -12
-13 -3 -17 74 -33 48 -10 97 -20 108 -23 17 -4 24 2 33 28 15 43 15 43 -15 20
-28 -22 -88 -28 -113 -12 -12 8 -13 18 -2 66 14 62 27 67 52 17 l16 -32 12 57
c14 73 13 84 -5 51 -9 -17 -23 -28 -36 -28 -19 0 -20 4 -14 46 7 57 12 64 40
64 32 0 76 -37 76 -63 0 -18 2 -19 10 -7 5 8 10 26 10 40 0 24 -5 27 -92 44
-50 11 -101 21 -112 24 -20 4 -20 4 -2 -10z"/>
<path d="M795 2674 c-55 -31 -93 -53 -83 -51 22 7 36 -11 91 -117 48 -90 56
-116 35 -116 -6 0 -9 -2 -6 -5 4 -4 188 86 207 101 2 2 -4 20 -12 41 -14 33
-16 35 -16 13 -1 -33 -25 -66 -60 -85 -26 -13 -30 -13 -44 3 -15 17 -47 76
-47 87 0 12 48 4 60 -10 24 -29 21 -7 -7 50 l-28 57 -5 -38 c-7 -53 -24 -53
-56 2 -27 46 -27 47 -8 61 32 24 66 27 95 10 l28 -15 -16 34 c-9 19 -19 34
-22 34 -3 -1 -51 -26 -106 -56z"/>
<path d="M2156 2687 c7 -19 -102 -216 -124 -224 -9 -4 1 -15 32 -34 51 -32 64
-36 46 -15 -9 12 0 35 51 121 52 89 65 106 82 101 27 -7 12 6 -46 39 -33 19
-45 23 -41 12z"/>
<path d="M2319 2587 c15 -19 3 -35 -107 -157 -45 -50 -51 -54 -68 -40 -10 8
-15 10 -11 3 4 -6 31 -31 60 -55 28 -23 46 -35 38 -25 -11 14 -11 20 0 35 26
34 63 72 71 72 17 0 28 -39 18 -64 -5 -14 -8 -26 -6 -26 1 0 22 23 46 51 31
37 37 48 20 39 -23 -12 -70 -1 -70 18 0 4 17 25 38 45 l39 38 33 -31 c28 -26
32 -35 26 -63 l-6 -32 27 27 c15 15 25 29 22 30 -2 2 -38 33 -79 69 -82 71
-115 95 -91 66z"/>
<path d="M599 2531 c-36 -33 -47 -48 -33 -44 18 4 37 -12 98 -83 42 -48 75
-94 74 -103 -5 -24 -35 -25 -41 -1 -6 24 -45 28 -53 5 -9 -23 15 -45 48 -45
19 0 40 10 59 29 49 50 43 66 -75 206 -34 40 -38 49 -28 66 18 28 11 24 -49
-30z"/>
<path d="M1410 2491 c-25 -4 -55 -14 -68 -22 -16 -11 -36 -15 -65 -12 -31 4
-46 1 -56 -11 -7 -9 -25 -16 -39 -16 -14 0 -36 -9 -48 -21 -14 -13 -41 -22
-78 -26 -42 -4 -57 -10 -61 -24 -4 -11 -18 -22 -33 -26 -14 -3 -48 -28 -74
-54 -27 -27 -52 -48 -56 -48 -26 4 -43 -5 -61 -36 -12 -22 -28 -35 -41 -35
-14 0 -26 -14 -42 -46 -12 -27 -34 -54 -52 -65 -46 -26 -56 -38 -56 -59 0 -11
-14 -39 -31 -62 -24 -34 -29 -49 -24 -74 4 -25 0 -38 -20 -62 -18 -21 -25 -42
-25 -70 0 -22 -6 -45 -14 -51 -25 -21 -37 -69 -20 -85 18 -19 18 -61 -2 -91
-14 -21 -14 -37 1 -171 15 -138 33 -204 55 -204 6 0 10 -18 10 -39 0 -32 5
-44 29 -60 28 -20 45 -64 42 -107 -2 -15 9 -28 33 -44 20 -12 36 -30 36 -40 0
-19 44 -60 64 -60 14 0 50 -46 60 -77 4 -11 20 -26 37 -33 16 -7 39 -26 50
-41 16 -23 28 -29 59 -29 31 0 43 -6 57 -26 35 -50 54 -66 75 -61 14 4 34 -5
59 -25 32 -26 43 -29 73 -24 25 5 44 1 71 -14 20 -11 53 -20 73 -20 21 1 55
-3 77 -9 29 -7 49 -7 72 1 24 9 38 9 58 0 36 -17 52 -15 83 7 24 18 33 19 80
9 43 -9 56 -8 70 4 33 27 71 38 118 31 39 -5 49 -2 72 19 15 14 45 30 67 36
30 9 43 19 51 41 8 21 20 31 45 36 37 8 145 109 169 159 8 17 29 40 47 51 18
11 39 36 46 55 8 19 29 47 46 63 19 16 31 37 31 52 0 13 11 35 25 49 17 17 25
36 25 60 0 19 10 51 21 71 18 29 20 46 16 98 -4 50 -1 70 16 104 19 37 20 46
9 75 -9 26 -9 41 0 65 10 26 9 35 -8 59 -20 31 -25 56 -25 120 0 29 -6 47 -20
59 -13 13 -19 31 -19 61 0 33 -5 47 -20 56 -14 9 -20 24 -20 49 0 25 -9 48
-30 74 -16 21 -30 43 -30 50 0 7 -21 23 -47 37 -40 20 -50 30 -58 64 -14 54
-20 61 -60 68 -19 4 -35 12 -35 19 0 25 -19 40 -56 46 -31 5 -41 13 -58 46
-22 42 -55 65 -96 65 -14 0 -34 6 -45 14 -11 7 -37 16 -57 19 -21 3 -57 20
-81 37 -31 22 -55 31 -83 31 -125 1 -202 7 -227 17 -16 7 -31 11 -35 11 -4 -1
-27 -5 -52 -8z m45 -41 c-3 -5 -13 -10 -21 -10 -8 0 -14 5 -14 10 0 6 9 10 21
10 11 0 17 -4 14 -10z m68 -5 c-4 -15 -36 -12 -41 3 -3 9 3 13 19 10 13 -1 23
-7 22 -13z m136 1 c9 -10 8 -16 -4 -26 -19 -16 -41 1 -32 24 8 20 21 20 36 2z
m-241 -19 c2 -10 -3 -17 -12 -17 -18 0 -29 16 -21 31 9 14 29 6 33 -14z m172
7 c0 -8 4 -13 9 -10 14 9 36 -23 24 -35 -7 -7 -20 -1 -41 18 -37 32 -40 43
-12 43 11 0 20 -7 20 -16z m140 6 c13 -8 9 -15 -19 -40 -27 -24 -37 -28 -48
-19 -11 10 -9 17 14 40 32 32 32 32 53 19z m-245 -20 c0 -22 -29 -18 -33 3 -3
14 1 18 15 15 10 -2 18 -10 18 -18z m70 -10 c0 -22 -29 -18 -33 3 -3 14 1 18
15 15 10 -2 18 -10 18 -18z m243 3 c2 -7 -3 -13 -11 -13 -8 0 -17 -7 -21 -15
-7 -19 -32 -19 -39 -1 -6 16 16 40 26 29 4 -3 7 -1 7 6 0 16 32 10 38 -6z
m-538 -2 c0 -14 -18 -23 -30 -16 -6 4 -8 11 -5 16 8 12 35 12 35 0z m60 -3 c0
-7 -12 -24 -26 -37 -18 -17 -28 -21 -36 -13 -15 15 -2 43 17 36 11 -5 14 -2 9
10 -4 12 0 16 15 16 12 0 21 -6 21 -12z m65 -8 c0 -22 -29 -18 -33 3 -3 14 1
18 15 15 10 -2 18 -10 18 -18z m73 -7 c5 -18 -28 -29 -38 -12 -5 7 -6 17 -3
22 7 12 35 5 41 -10z m60 -20 c-10 -12 -14 -12 -27 2 -14 14 -14 17 -1 25 21
13 44 -8 28 -27z m-283 1 c14 -21 15 -28 4 -35 -16 -9 -64 35 -54 51 11 18 32
11 50 -16z m602 13 c4 -8 17 -17 27 -21 18 -6 18 -8 4 -23 -18 -17 -38 -10
-38 13 0 19 -10 18 -25 -3 -7 -9 -19 -14 -29 -10 -22 9 -20 28 4 34 11 3 20 9
20 14 0 14 28 11 37 -4z m-109 -19 c16 -16 15 -28 -2 -28 -17 0 -38 24 -29 33
9 10 17 9 31 -5z m-650 -47 c10 -13 14 -12 26 4 8 11 20 16 29 12 11 -4 14 -2
10 8 -7 19 25 31 40 16 9 -9 4 -19 -22 -41 -18 -16 -37 -27 -42 -24 -5 3 -9 0
-9 -5 0 -22 -32 -10 -66 23 -20 20 -33 40 -29 46 7 11 34 -6 63 -39z m36 40
c8 -12 -21 -34 -34 -26 -8 5 -8 11 1 21 13 16 25 18 33 5z m826 -11 c25 -22
35 -26 25 -10 -3 6 3 10 14 10 12 0 21 -4 21 -10 0 -5 6 -10 13 -10 6 0 25
-14 41 -30 27 -27 27 -30 10 -37 -10 -4 -24 -13 -30 -22 -7 -9 -18 -12 -30 -7
-18 7 -18 9 5 27 13 11 21 22 17 26 -3 4 -12 -2 -20 -12 -15 -21 -46 -14 -46
10 0 8 -7 15 -15 15 -8 0 -15 7 -15 15 0 20 -10 19 -25 -2 -7 -9 -19 -14 -29
-10 -23 9 -20 26 7 37 12 5 18 9 14 9 -10 1 1 21 12 21 4 0 18 -9 31 -20z
m-909 -39 c18 -16 18 -19 4 -31 -13 -11 -19 -10 -35 7 -14 15 -16 23 -7 32 14
14 14 14 38 -8z m809 -11 c21 -25 33 -31 73 -32 52 -3 83 -23 52 -34 -10 -4
-21 -1 -25 7 -5 7 -12 11 -15 7 -12 -11 28 -40 48 -34 26 7 75 -28 79 -57 2
-17 12 -23 41 -28 44 -7 54 -15 59 -49 2 -14 11 -26 24 -30 11 -3 33 -14 48
-26 26 -19 27 -23 16 -44 -11 -21 -10 -26 19 -49 21 -18 31 -35 31 -54 0 -23
5 -29 31 -34 36 -7 42 -18 30 -58 -7 -25 -4 -34 16 -56 20 -22 22 -30 13 -53
-17 -46 -12 -70 22 -99 31 -25 32 -28 16 -41 -22 -16 -23 -49 -3 -66 13 -11
13 -16 -5 -45 -27 -43 -25 -71 5 -91 28 -18 33 -42 10 -50 -18 -7 -35 5 -140
101 -202 186 -355 427 -438 690 -57 182 -69 255 -40 255 4 0 19 -13 33 -30z
m-851 -16 c20 -21 22 -27 10 -34 -10 -7 -21 -2 -36 17 -41 47 -17 62 26 17z
m197 -26 c-12 -76 -75 -259 -124 -362 -91 -189 -212 -355 -370 -508 -96 -92
-130 -110 -117 -60 13 52 20 157 12 184 -6 18 -4 36 7 57 9 16 16 43 16 58 1
15 7 39 15 53 8 14 14 42 15 62 0 24 9 47 25 66 14 17 32 47 41 69 9 21 23 46
32 56 8 9 18 34 21 55 5 28 13 41 37 52 35 18 132 111 157 153 11 16 26 27 40
27 12 0 34 6 48 14 14 7 42 16 61 20 19 3 43 15 53 26 29 32 38 24 31 -22z
m-241 11 c4 -6 -2 -13 -14 -16 -25 -6 -27 -21 -5 -37 14 -11 11 -17 -24 -55
-25 -27 -45 -40 -52 -36 -9 5 -10 1 -5 -14 4 -12 2 -21 -4 -21 -22 0 -26 -2
-34 -16 -10 -18 -31 -18 -46 0 -9 10 -8 16 4 26 8 7 15 10 15 7 0 -3 11 5 26
19 23 24 24 27 8 38 -18 14 -12 36 10 36 8 0 21 -10 29 -22 13 -19 16 -20 16
-5 1 9 8 17 16 17 8 0 15 7 15 15 0 8 -5 14 -11 13 -20 -5 -22 22 -2 29 10 3
22 12 26 20 10 16 23 17 32 2z m1158 -23 c8 -8 24 -12 40 -9 18 4 27 1 27 -7
0 -7 -8 -10 -19 -7 -14 3 -17 0 -14 -13 3 -10 13 -20 24 -23 13 -3 17 -11 13
-21 -9 -22 -35 -20 -41 4 -3 11 -9 20 -13 20 -4 0 -10 -9 -13 -20 -5 -20 -31
-27 -41 -11 -10 15 6 43 20 37 20 -8 17 0 -7 23 -12 11 -18 24 -14 30 9 15 21
14 38 -3z m-1133 -5 c0 -14 -18 -23 -30 -16 -6 4 -8 11 -5 16 8 12 35 12 35 0z
m1098 -29 c3 -9 -2 -13 -14 -10 -9 1 -19 9 -22 16 -3 9 2 13 14 10 9 -1 19 -9
22 -16z m-1198 -7 c0 -8 -4 -15 -9 -15 -13 0 -22 16 -14 24 11 11 23 6 23 -9z
m1370 -35 c8 -5 11 -10 6 -10 -6 0 -1 -6 10 -14 16 -12 17 -17 6 -28 -11 -11
-16 -10 -28 6 -7 11 -17 16 -21 13 -3 -4 2 -14 13 -21 14 -11 16 -17 7 -26
-13 -14 -33 -5 -33 14 0 8 -10 16 -22 19 -18 5 -19 8 -9 21 8 9 17 13 22 10 5
-3 9 2 9 10 0 18 18 20 40 6z m-1435 -21 c0 -7 -8 -15 -17 -17 -18 -3 -25 18
-11 32 10 10 28 1 28 -15z m-40 -19 c4 -6 1 -17 -5 -26 -10 -11 -16 -12 -26
-3 -11 9 -11 15 -3 25 14 17 25 18 34 4z m-30 -40 c3 -6 -1 -13 -10 -16 -19
-8 -30 0 -20 15 8 14 22 14 30 1z m1530 -21 c0 -7 -8 -15 -17 -17 -18 -3 -25
18 -11 32 10 10 28 1 28 -15z m-1505 -19 c0 -21 -24 -28 -35 -10 -8 14 3 30
21 30 8 0 14 -9 14 -20z m1540 -15 c0 -19 -20 -29 -32 -17 -15 15 -2 43 17 36
8 -3 15 -12 15 -19z m67 -7 c13 -12 23 -29 23 -37 0 -9 9 -22 20 -29 12 -7 18
-17 14 -23 -9 -15 -68 47 -61 65 4 10 0 12 -14 9 -10 -3 -19 -12 -19 -20 0
-17 -31 -14 -38 5 -2 6 7 16 20 21 12 6 19 10 15 10 -9 1 1 21 10 21 4 0 17
-10 30 -22z m-1639 -5 c5 -17 -26 -29 -40 -15 -6 6 -7 15 -3 22 9 14 37 9 43
-7z m606 -12 c10 -15 -62 -71 -91 -71 -26 0 -26 0 -7 21 19 22 73 59 86 59 4
0 9 -4 12 -9z m-647 -20 c3 -11 11 -22 19 -25 16 -6 19 -32 4 -41 -15 -9 -42
15 -36 32 4 9 1 11 -5 7 -16 -10 -30 18 -17 33 15 19 29 16 35 -6z m63 -6 c0
-19 -20 -29 -32 -17 -8 8 -7 16 2 26 14 17 30 12 30 -9z m643 18 c12 -11 -45
-63 -70 -63 -31 0 -29 13 8 44 31 26 50 32 62 19z m50 -20 c10 -10 -44 -63
-63 -63 -30 0 -31 13 -3 42 26 27 52 35 66 21z m853 -4 c10 -17 -13 -36 -27
-22 -12 12 -4 33 11 33 5 0 12 -5 16 -11z m-833 -49 c-21 -19 -39 -27 -49 -23
-14 5 -11 12 20 41 29 26 41 31 49 22 9 -9 4 -18 -20 -40z m903 39 c3 -6 1
-16 -4 -21 -13 -13 -45 8 -36 23 7 12 31 11 40 -2z m-1718 -16 c5 -17 -26 -29
-40 -15 -6 6 -7 15 -3 22 9 14 37 9 43 -7z m902 -8 c0 -15 -49 -45 -75 -45
-23 0 -18 16 13 39 32 24 62 27 62 6z m783 -2 c9 -9 -13 -34 -24 -27 -14 8
-11 34 4 34 8 0 17 -3 20 -7z m67 -19 c0 -8 7 -14 16 -14 9 0 14 -7 12 -17 -4
-24 -27 -28 -35 -6 -4 10 -13 23 -21 29 -8 6 -12 16 -8 22 9 15 36 4 36 -14z
m-1721 3 c6 -8 8 -17 4 -21 -4 -4 -1 -11 6 -15 7 -5 10 -14 7 -20 -10 -16 -26
-14 -26 4 0 21 -13 19 -28 -6 -11 -16 -16 -18 -28 -9 -8 7 -14 18 -14 25 0 6
-7 12 -15 12 -8 0 -15 -6 -15 -14 0 -7 -4 -13 -10 -13 -16 0 -12 18 10 40 24
24 40 26 40 5 0 -8 8 -15 17 -15 9 0 13 3 10 7 -7 7 11 33 23 33 4 0 13 -6 19
-13z m1686 -17 c4 -6 1 -18 -6 -26 -11 -13 -14 -13 -27 0 -8 8 -11 19 -8 25 9
14 33 14 41 1z m28 -45 c1 -5 -6 -11 -15 -13 -11 -2 -18 3 -18 13 0 17 30 18
33 0z m-1786 -15 c3 -11 12 -20 19 -20 8 0 14 -9 14 -20 0 -26 -30 -26 -37 0
-3 11 -9 18 -13 15 -11 -7 -33 22 -25 35 11 17 37 11 42 -10z m56 -11 c-17
-17 -37 -1 -22 17 8 10 15 12 23 4 7 -7 7 -13 -1 -21z m1765 -6 c5 -18 -28
-29 -38 -12 -5 7 -6 17 -3 22 7 12 35 5 41 -10z m52 -9 c0 -9 -5 -14 -12 -12
-18 6 -21 28 -4 28 9 0 16 -7 16 -16z m-1910 -9 c0 -8 -4 -15 -10 -15 -5 0
-10 7 -10 15 0 8 5 15 10 15 6 0 10 -7 10 -15z m1889 -8 c6 -8 8 -17 4 -20 -3
-4 -1 -7 5 -7 7 0 12 -9 12 -20 0 -11 -5 -20 -11 -20 -6 0 -13 9 -16 20 -3 11
-12 20 -19 20 -14 0 -19 22 -7 33 10 10 19 8 32 -6z m-1853 -18 c3 -6 1 -16
-4 -21 -13 -13 -45 8 -36 23 7 12 31 11 40 -2z m1854 -61 c0 -14 -31 -21 -42
-10 -8 8 -7 16 3 29 13 17 13 17 -4 4 -24 -19 -47 0 -27 24 12 14 16 13 42
-11 15 -15 28 -32 28 -36z m-995 23 c-3 -12 -13 -21 -21 -21 -9 0 -12 5 -8 13
23 40 41 46 29 8z m-890 -1 c0 -22 -39 -19 -43 3 -3 15 1 18 20 15 12 -2 23
-10 23 -18z m55 -5 c0 -8 -7 -15 -15 -15 -8 0 -15 7 -15 15 0 8 7 15 15 15 8
0 15 -7 15 -15z m-95 -26 c0 -7 -8 -15 -17 -17 -18 -3 -25 18 -11 32 10 10 28
1 28 -15z m75 -11 c0 -15 -32 -21 -40 -7 -13 20 9 43 26 28 8 -6 14 -16 14
-21z m1877 -8 c3 -11 9 -20 14 -20 14 0 11 -38 -3 -43 -9 -3 -7 -9 6 -19 21
-16 16 -48 -7 -48 -8 0 -14 -7 -14 -15 0 -8 4 -12 8 -10 9 6 30 -20 22 -28 -3
-4 1 -7 10 -7 28 0 31 -22 6 -42 -21 -18 -22 -21 -6 -29 9 -6 17 -16 17 -24 0
-7 5 -15 12 -17 6 -2 8 -10 4 -16 -6 -9 -14 -6 -32 10 -13 13 -24 29 -24 36 0
6 -7 12 -16 12 -10 0 -14 7 -12 18 2 9 10 16 16 15 20 -5 13 17 -13 41 -24 22
-35 66 -16 66 5 0 12 7 15 16 3 8 2 13 -3 10 -12 -8 -34 21 -26 34 3 5 12 10
19 10 7 0 13 7 13 15 0 8 -3 13 -5 10 -3 -3 -11 0 -19 6 -10 9 -10 15 -2 25
16 20 30 17 36 -6z m-1027 -15 c0 -21 -24 -45 -44 -45 -12 0 -5 39 10 54 22
23 34 20 34 -9z m-895 -5 c0 -22 -29 -18 -33 3 -3 14 1 18 15 15 10 -2 18 -10
18 -18z m1889 -9 c8 -12 -21 -34 -34 -26 -17 11 -11 35 9 35 11 0 22 -4 25 -9z
m-1916 -18 c5 -17 -26 -29 -40 -15 -6 6 -7 15 -3 22 9 14 37 9 43 -7z m55 4
c9 -23 -8 -40 -22 -23 -13 15 -7 36 9 36 4 0 10 -6 13 -13z m1333 1 c9 -15
-44 -58 -73 -58 -32 0 -36 14 -10 37 35 32 71 41 83 21z m-722 -7 c8 -12 -53
-63 -65 -55 -14 8 -11 22 11 44 21 21 45 26 54 11z m576 1 c0 -14 -56 -63 -63
-55 -11 10 -8 38 5 51 13 13 58 16 58 4z m25 -44 c-28 -29 -43 -47 -34 -40 9
6 19 9 22 5 15 -15 5 -41 -28 -73 -28 -28 -38 -32 -45 -21 -9 15 -4 37 14 60
8 11 8 13 -1 7 -9 -5 -13 -1 -13 11 0 27 80 103 109 103 24 0 22 -3 -24 -52z
m610 24 c0 -18 -20 -15 -23 4 -3 10 1 15 10 12 7 -3 13 -10 13 -16z m-1918
-12 c3 -11 12 -20 19 -20 8 0 14 -9 14 -20 0 -12 -7 -20 -16 -20 -9 0 -18 9
-21 20 -3 11 -12 20 -19 20 -14 0 -19 22 -7 33 12 13 25 7 30 -13z m70 4 c9
-23 -13 -40 -32 -24 -12 10 -13 16 -4 26 15 18 28 18 36 -2z m899 5 c7 -12
-46 -60 -58 -52 -13 7 -9 22 12 43 23 23 36 25 46 9z m-248 -56 c0 -53 -3 -60
-35 -87 -26 -22 -37 -26 -46 -17 -8 8 -1 22 28 53 22 24 28 32 12 18 -30 -26
-54 -17 -43 16 5 15 71 74 82 74 2 0 3 -26 2 -57z m1230 23 c3 -12 -1 -17 -10
-14 -7 3 -15 13 -16 22 -3 12 1 17 10 14 7 -3 15 -13 16 -22z m-968 -16 c0
-11 -51 -60 -62 -60 -18 0 -6 40 18 59 25 20 44 20 44 1z m-920 -41 c0 -22
-13 -25 -29 -6 -8 10 -7 17 1 25 15 15 28 6 28 -19z m1974 8 c-1 -8 4 -13 11
-11 7 3 15 -2 18 -10 4 -10 1 -16 -7 -16 -17 0 -58 45 -49 53 11 12 28 1 27
-16z m-1038 -8 c6 -10 -51 -68 -68 -69 -19 -1 -6 40 18 59 30 24 40 26 50 10z
m-967 -13 c8 -10 8 -16 -2 -25 -16 -13 -27 -5 -27 21 0 21 13 23 29 4z m1371
-14 c0 -14 -55 -62 -71 -62 -10 0 -24 -12 -31 -26 -7 -15 -27 -38 -45 -51
l-32 -25 1 51 c0 45 4 54 38 85 33 29 45 34 89 34 28 1 51 -2 51 -6z m-384
-16 c3 -9 -8 -27 -28 -45 -38 -35 -46 -37 -55 -14 -4 11 4 26 25 45 36 31 50
35 58 14z m962 -3 c5 -18 -28 -29 -38 -12 -5 7 -6 17 -3 22 7 12 35 5 41 -10z
m-1978 -7 c0 -16 -18 -31 -27 -22 -8 8 5 36 17 36 5 0 10 -6 10 -14z m64 -2
c4 -9 4 -19 2 -22 -10 -9 -36 8 -36 23 0 20 26 19 34 -1z m656 -13 c0 -23 -76
-86 -85 -71 -11 18 4 44 37 68 40 27 48 28 48 3z m690 -1 c0 -15 -7 -20 -27
-20 -25 0 -26 0 -8 20 10 11 22 20 27 20 4 0 8 -9 8 -20z m-1372 -23 c2 -9 -4
-20 -15 -24 -10 -4 -26 -16 -35 -28 -15 -18 -17 -19 -23 -2 -9 21 1 50 14 43
5 -3 11 4 14 15 7 25 40 22 45 -4z m995 -1 c7 -17 -57 -81 -72 -72 -18 11 -13
28 16 58 29 31 48 35 56 14z m932 -35 c-14 -14 -17 -14 -25 -1 -13 21 8 44 27
28 12 -10 12 -14 -2 -27z m-1898 3 c8 -21 -13 -42 -28 -27 -13 13 -5 43 11 43
6 0 13 -7 17 -16z m653 -2 c0 -23 -65 -86 -79 -78 -19 12 -12 27 26 62 42 38
53 42 53 16z m329 -19 c0 -26 -57 -69 -72 -54 -8 8 -3 19 18 41 32 34 55 39
54 13z m886 -3 c0 -7 -6 -15 -12 -17 -8 -3 -13 4 -13 17 0 13 5 20 13 18 6 -3
12 -11 12 -18z m84 -5 c13 -14 21 -32 17 -40 -8 -21 -27 -19 -33 5 -3 11 -9
18 -13 15 -11 -7 -33 22 -25 35 10 16 28 11 54 -15z m-1989 0 c6 -8 9 -19 5
-25 -3 -5 1 -10 10 -10 10 0 15 -7 13 -17 -4 -24 -27 -28 -35 -6 -4 10 -13 23
-22 29 -8 6 -12 18 -8 28 8 20 21 21 37 1z m1270 -20 c0 -7 -17 -28 -37 -46
-36 -31 -38 -32 -41 -11 -2 14 8 31 30 51 33 29 48 31 48 6z m667 -5 c3 -11
11 -20 18 -20 20 0 48 -61 35 -74 -13 -13 -32 12 -23 28 3 5 2 6 -4 3 -14 -9
-66 51 -59 68 8 21 27 18 33 -5z m-1244 -4 c4 -9 -10 -29 -34 -50 -45 -41 -45
-41 -53 -21 -3 9 9 28 32 50 41 39 47 41 55 21z m-728 -16 c0 -22 -29 -18 -33
3 -3 14 1 18 15 15 10 -2 18 -10 18 -18z m1065 3 c0 -17 -37 -63 -51 -63 -19
0 -18 35 2 57 26 27 49 30 49 6z m240 -36 c0 -13 -5 -28 -12 -35 -12 -12 -68
-17 -68 -7 0 8 64 64 73 65 4 0 7 -10 7 -23z m-1275 -7 c0 -22 -29 -18 -33 3
-3 14 1 18 15 15 10 -2 18 -10 18 -18z m700 -1 c9 -14 -24 -49 -47 -49 -24 0
-23 9 4 37 24 25 34 28 43 12z m345 -16 c0 -20 -28 -53 -47 -53 -21 0 -15 37
9 54 29 20 38 20 38 -1z m-1075 -23 c-5 -8 -11 -8 -17 -2 -6 6 -7 16 -3 22 5
8 11 8 17 2 6 -6 7 -16 3 -22z m63 17 c15 -17 -38 -69 -58 -57 -18 11 -4 44
16 36 8 -3 12 -2 9 4 -7 11 2 30 14 30 5 0 13 -6 19 -13z m462 5 c0 -4 -6 -14
-12 -22 -11 -12 -10 -12 4 -1 9 7 22 10 28 6 18 -11 11 -33 -19 -54 -29 -21
-30 -21 -36 -1 -3 11 -4 24 -1 29 4 5 0 11 -6 14 -10 3 -10 7 1 20 14 18 41
23 41 9z m1476 -23 c10 -17 -13 -36 -27 -22 -12 12 -4 33 11 33 5 0 12 -5 16
-11z m-1908 -32 c2 -10 -3 -17 -12 -17 -18 0 -29 16 -21 31 9 14 29 6 33 -14z
m982 4 c0 -13 -40 -61 -51 -61 -16 0 -10 23 13 47 22 24 38 30 38 14z m893 -6
c7 -16 -8 -29 -23 -20 -15 9 -12 35 4 35 8 0 16 -7 19 -15z m62 -8 c0 -9 -4
-17 -10 -16 -5 0 -13 -10 -17 -22 -8 -21 -10 -21 -25 -7 -15 16 -10 43 7 33 4
-3 10 5 13 16 7 24 32 21 32 -4z m-1967 -20 c2 -10 -3 -17 -12 -17 -18 0 -29
16 -21 31 9 14 29 6 33 -14z m502 5 c0 -21 -18 -42 -37 -42 -18 0 -16 20 4 42
21 23 33 23 33 0z m1385 -18 c21 -21 24 -29 14 -40 -9 -11 -15 -11 -25 -3 -8
6 -11 15 -8 20 3 5 0 9 -5 9 -6 0 -11 9 -11 20 0 26 4 25 35 -6z m-1920 -14
c0 -22 -29 -18 -33 3 -3 14 1 18 15 15 10 -2 18 -10 18 -18z m71 -1 c3 -6 1
-16 -4 -21 -13 -13 -45 8 -36 23 7 12 31 11 40 -2z m474 -25 c0 -8 -7 -14 -15
-14 -15 0 -21 21 -9 33 10 9 24 -2 24 -19z m-515 -4 c11 -17 -5 -32 -21 -19
-8 6 -14 15 -14 20 0 12 27 11 35 -1z m70 -30 c-4 -6 -13 -9 -21 -6 -20 8 -17
0 8 -24 17 -15 19 -23 10 -32 -9 -9 -19 -4 -42 22 -29 33 -31 50 -5 50 7 0 16
8 19 17 6 15 8 15 23 1 8 -9 12 -21 8 -28z m1804 26 c9 -10 8 -16 -4 -26 -19
-16 -41 1 -32 24 8 20 21 20 36 2z m61 -11 c0 -9 -10 -27 -23 -41 -21 -22 -25
-23 -36 -10 -14 17 -7 36 15 36 8 0 14 7 14 15 0 8 7 15 15 15 8 0 15 -7 15
-15z m-1931 -49 c8 -10 8 -16 -2 -25 -16 -13 -27 -5 -27 21 0 21 13 23 29 4z
m1871 -21 c0 -7 5 -15 12 -17 6 -2 8 -10 4 -16 -10 -17 -26 -15 -26 4 0 8 -4
13 -9 9 -13 -7 -24 12 -17 30 6 17 36 9 36 -10z m56 -4 c-8 -13 -36 -15 -36
-3 0 4 5 13 12 20 14 14 34 0 24 -17z m-1888 -19 c3 -9 -2 -13 -14 -10 -9 1
-19 9 -22 16 -3 9 2 13 14 10 9 -1 19 -9 22 -16z m58 -7 c4 -8 12 -15 19 -15
26 0 27 -21 1 -47 -27 -26 -56 -26 -56 2 0 8 -7 15 -16 15 -9 0 -14 7 -12 17
5 25 29 28 35 4 3 -12 12 -21 19 -21 22 0 16 27 -6 33 -11 3 -20 10 -20 16 0
17 30 13 36 -4z m1734 -4 c0 -12 -20 -25 -27 -18 -7 7 6 27 18 27 5 0 9 -4 9
-9z m-36 -42 c-7 -13 -31 -11 -40 2 -9 16 18 30 33 17 7 -6 10 -14 7 -19z m74
8 c4 -20 -25 -34 -40 -19 -15 15 -1 44 19 40 10 -2 19 -11 21 -21z m-113 -17
c10 -16 -16 -43 -28 -31 -11 11 -2 41 12 41 5 0 13 -5 16 -10z m-1595 -20 c0
-13 -5 -18 -15 -14 -8 4 -15 12 -15 20 0 8 7 14 15 14 8 0 15 -9 15 -20z
m1666 9 c3 -6 1 -16 -4 -21 -13 -13 -45 8 -36 23 7 12 31 11 40 -2z m-1696
-49 c-19 -12 -35 3 -26 26 6 17 8 17 24 0 15 -15 15 -18 2 -26z m1594 21 c7
-10 -22 -37 -30 -28 -9 8 3 37 15 37 5 0 12 -4 15 -9z m77 -15 c9 -20 8 -29
-7 -50 -11 -14 -25 -25 -33 -23 -22 3 -15 21 11 29 13 3 19 6 14 7 -5 1 -3 7
3 14 8 11 6 13 -11 13 -14 -1 -24 6 -26 17 -6 27 36 22 49 -7z m-1697 -27 c-7
-13 -31 -11 -40 2 -9 16 18 30 33 17 7 -6 10 -14 7 -19z m74 4 c5 -17 -26 -29
-40 -15 -6 6 -7 15 -3 22 9 14 37 9 43 -7z m1577 7 c4 -6 1 -18 -6 -26 -11
-13 -14 -13 -27 0 -8 8 -11 19 -8 25 9 14 33 14 41 1z m-1525 -15 c0 -8 -7
-15 -15 -15 -8 0 -15 7 -15 15 0 8 7 15 15 15 8 0 15 -7 15 -15z m822 5 c127
-11 264 -37 401 -77 90 -27 109 -45 63 -62 -12 -5 -39 -27 -57 -50 -30 -34
-42 -41 -87 -47 -29 -4 -55 -11 -58 -15 -3 -5 -15 -9 -28 -9 -12 0 -37 -16
-56 -35 -33 -35 -36 -35 -91 -29 -37 4 -59 2 -63 -5 -4 -6 -26 -11 -48 -11
-25 0 -49 -7 -60 -17 -17 -15 -20 -15 -41 5 -24 22 -53 26 -193 23 -45 -1 -52
2 -62 23 -7 17 -22 27 -46 32 -19 3 -40 12 -47 20 -7 9 -32 14 -70 14 -57 0
-58 0 -81 41 -12 23 -35 48 -51 56 -114 58 143 132 533 151 14 1 78 -3 142 -8z
m638 1 c0 -5 -7 -11 -15 -15 -9 -3 -15 0 -15 9 0 8 7 15 15 15 8 0 15 -4 15
-9z m-1554 -22 c3 -6 1 -16 -5 -22 -9 -9 -14 -8 -21 3 -9 15 -4 30 10 30 5 0
12 -5 16 -11z m1582 -12 c2 -10 -3 -17 -12 -17 -18 0 -29 16 -21 31 9 14 29 6
33 -14z m-1515 6 c4 -3 2 -12 -4 -20 -9 -10 -15 -10 -25 -2 -8 6 -11 15 -8 20
6 11 28 12 37 2z m1487 -33 c0 -5 -5 -12 -11 -16 -14 -8 -33 11 -25 25 7 11
36 4 36 -9z m-1520 -5 c0 -9 -7 -18 -16 -22 -18 -7 -39 11 -30 26 11 17 46 13
46 -4z m60 2 c0 -8 -3 -17 -7 -20 -9 -9 -34 13 -27 24 8 14 34 11 34 -4z
m1520 4 c0 -14 -18 -23 -30 -16 -6 4 -8 11 -5 16 8 12 35 12 35 0z m-1480 -46
c0 -7 10 -15 22 -19 21 -5 22 -7 6 -22 -17 -18 -38 -12 -38 12 0 8 -7 14 -15
14 -15 0 -21 21 -9 33 9 9 34 -4 34 -18z m1380 11 c0 -18 -17 -29 -30 -21 -8
5 -7 11 1 21 15 18 29 18 29 0z m60 1 c0 -23 -49 -62 -61 -50 -15 15 -1 36 21
30 13 -3 16 0 13 14 -4 13 0 19 11 19 9 0 16 -6 16 -13z m-101 -44 c-15 -18
-34 -1 -25 22 5 14 9 15 21 5 12 -10 13 -16 4 -27z m-1380 14 c6 -8 8 -16 5
-20 -10 -9 -34 4 -34 19 0 18 14 18 29 1z m1351 -32 c0 -8 -7 -15 -15 -15 -16
0 -20 12 -8 23 11 12 23 8 23 -8z m65 -5 c0 -22 -29 -18 -33 3 -3 14 1 18 15
15 10 -2 18 -10 18 -18z m55 11 c0 -12 -20 -25 -27 -18 -7 7 6 27 18 27 5 0 9
-4 9 -9z m-1434 -12 c3 -6 1 -16 -5 -22 -9 -9 -14 -8 -21 3 -9 15 -4 30 10 30
5 0 12 -5 16 -11z m68 -4 c7 -20 -21 -32 -37 -16 -9 9 -8 14 3 21 21 13 27 12
34 -5z m54 -14 c3 -8 -1 -12 -9 -9 -7 2 -15 10 -17 17 -3 8 1 12 9 9 7 -2 15
-10 17 -17z m1162 -2 c0 -12 -29 -24 -37 -16 -3 4 -3 13 0 21 6 16 37 11 37
-5z m60 -1 c0 -7 -12 -24 -26 -37 -18 -17 -28 -21 -36 -13 -15 15 -2 43 17 36
9 -4 15 -3 14 2 -3 18 1 24 16 24 8 0 15 -6 15 -12z m-1314 -9 c3 -6 2 -15 -2
-19 -12 -12 -38 5 -30 19 9 14 23 14 32 0z m96 -61 c-13 -13 -32 -2 -32 19 0
9 -3 13 -7 10 -3 -4 -13 -1 -22 6 -14 10 -14 10 -3 -5 16 -19 -3 -37 -21 -19
-8 8 -4 18 13 36 l24 25 29 -30 c22 -22 27 -34 19 -42z m1118 47 c10 -12 9
-16 -5 -21 -19 -8 -40 9 -31 25 10 15 21 14 36 -4z m-20 -42 c23 -20 26 -43 6
-43 -8 0 -16 -7 -20 -15 -3 -9 1 -15 11 -15 12 0 13 -3 3 -15 -10 -12 -15 -12
-36 2 -14 9 -23 22 -20 29 9 22 -18 16 -33 -7 l-13 -22 -24 26 c-28 31 -31 50
-6 45 9 -2 16 -9 15 -14 -1 -6 5 -11 13 -11 8 0 14 6 14 14 0 26 32 27 51 2
14 -18 19 -20 19 -8 0 9 -7 20 -16 23 -8 3 -12 10 -9 16 9 14 22 12 45 -7z
m53 10 c4 -3 2 -12 -4 -20 -9 -10 -15 -10 -25 -2 -8 6 -11 15 -8 20 6 11 28
12 37 2z m62 -3 c3 -6 -1 -13 -10 -16 -19 -8 -30 0 -20 15 8 14 22 14 30 1z
m-1145 -67 c0 -21 -21 -15 -27 7 -3 11 -14 20 -24 20 -21 0 -26 16 -6 23 14 5
57 -32 57 -50z m33 40 c4 -3 2 -12 -4 -20 -9 -10 -15 -10 -25 -2 -8 6 -11 15
-8 20 6 11 28 12 37 2z m57 -19 c0 -9 -5 -14 -12 -12 -18 6 -21 28 -4 28 9 0
16 -7 16 -16z m-30 -17 c0 -8 -3 -17 -7 -20 -9 -9 -34 13 -27 24 8 14 34 11
34 -4z m820 4 c0 -5 -6 -14 -14 -20 -10 -8 -16 -8 -25 2 -6 8 -8 17 -4 20 9
10 43 8 43 -2z m-752 -19 c3 -9 -2 -13 -14 -10 -9 1 -19 9 -22 16 -3 9 2 13
14 10 9 -1 19 -9 22 -16z m62 3 c7 -8 9 -15 4 -15 -5 -1 4 -8 19 -16 16 -8 25
-20 21 -26 -4 -6 -3 -8 3 -5 14 9 37 -19 28 -33 -11 -17 -35 -11 -43 11 -5 11
-12 20 -17 18 -6 -1 -14 8 -20 20 -5 11 -15 21 -22 21 -14 0 -18 22 -6 33 10
11 19 8 33 -8z m620 5 c0 -5 -7 -10 -16 -10 -8 0 -12 5 -9 10 3 6 10 10 16 10
5 0 9 -4 9 -10z m-782 -27 c-4 -22 -22 -20 -26 1 -2 10 3 16 13 16 10 0 15 -7
13 -17z m68 6 c3 -6 1 -16 -4 -21 -13 -13 -45 8 -36 23 7 12 31 11 40 -2z
m744 -4 c0 -8 7 -15 15 -15 8 0 14 6 13 12 -2 7 7 14 20 16 28 4 31 -28 2 -35
-25 -7 -25 -12 -2 -29 11 -9 14 -16 7 -23 -13 -13 -101 62 -91 78 10 16 36 13
36 -4z m138 -2 c2 -7 -5 -16 -15 -20 -10 -4 -24 -13 -31 -20 -34 -34 -43 -3
-9 33 23 25 47 28 55 7z m-828 -27 c-13 -13 -35 7 -25 24 5 8 11 8 21 -1 10
-8 12 -15 4 -23z m528 7 c5 -18 -28 -29 -38 -12 -5 7 -6 17 -3 22 7 12 35 5
41 -10z m-518 -55 c0 -5 -7 -8 -15 -8 -8 0 -15 7 -15 15 0 8 -6 15 -14 15 -18
0 -29 17 -21 31 7 10 64 -37 65 -53z m144 40 c-1 -10 1 -16 5 -13 10 5 62 -51
54 -59 -4 -3 -15 2 -26 11 -10 10 -21 17 -24 15 -7 -5 -53 42 -53 56 0 8 9 12
23 10 14 -2 21 -9 21 -20z m66 -3 c0 -7 9 -15 21 -18 24 -7 21 -30 -5 -35 -11
-2 -19 4 -23 17 -3 12 -12 21 -19 21 -14 0 -19 21 -8 33 9 9 34 -4 34 -18z
m368 7 c3 -9 -2 -13 -14 -10 -9 1 -19 9 -22 16 -3 9 2 13 14 10 9 -1 19 -9 22
-16z m70 1 c2 -7 -5 -16 -15 -20 -10 -4 -23 -13 -29 -21 -8 -12 -12 -11 -23 2
-11 13 -10 17 10 25 13 5 20 10 16 10 -5 1 -5 6 -2 12 9 13 37 8 43 -8z m-366
-20 c33 -32 35 -43 7 -43 -16 0 -20 5 -16 20 3 11 1 17 -4 14 -13 -7 -41 15
-33 27 8 14 16 11 46 -18z m-254 -1 c3 -9 -2 -13 -14 -10 -9 1 -19 9 -22 16
-3 9 2 13 14 10 9 -1 19 -9 22 -16z m377 8 c11 -17 -5 -32 -21 -19 -7 6 -11
15 -8 20 7 12 21 11 29 -1z m70 -11 c0 -7 -8 -15 -17 -17 -18 -3 -25 18 -11
32 10 10 28 1 28 -15z m82 -5 c24 -26 23 -44 -3 -44 -8 0 -14 8 -14 17 0 9 -3
13 -7 10 -3 -4 -12 -2 -20 4 -10 9 -10 15 -2 25 15 19 18 18 46 -12z m-177
-20 c0 -19 -28 -30 -42 -16 -8 8 -8 15 1 26 14 17 41 10 41 -10z m60 1 c10
-12 9 -16 -5 -21 -19 -8 -40 9 -31 25 10 15 21 14 36 -4z m68 -3 c2 -7 -6 -12
-17 -12 -21 0 -27 11 -14 24 9 9 26 2 31 -12z m-371 -7 c3 -9 3 -19 -1 -22 -8
-9 -37 18 -30 28 8 14 24 11 31 -6z m134 -28 c-5 -5 -17 -7 -26 -3 -14 5 -15
9 -5 21 10 12 16 13 27 4 9 -8 10 -16 4 -22z m135 12 c3 -6 2 -15 -2 -19 -12
-12 -38 5 -30 19 9 14 23 14 32 0z"/>
<path d="M1970 2310 c0 -5 7 -10 16 -10 8 0 12 5 9 10 -3 6 -10 10 -16 10 -5
0 -9 -4 -9 -10z"/>
<path d="M1774 1448 l-19 -23 23 19 c21 18 27 26 19 26 -2 0 -12 -10 -23 -22z"/>
<path d="M2137 487 c-3 -8 -20 -17 -37 -21 -18 -3 -47 -21 -66 -40 -28 -28
-34 -42 -34 -76 0 -76 39 -119 108 -120 49 0 86 16 121 54 21 23 23 28 11 55
-6 16 -9 35 -5 40 9 16 2 14 -46 -14 -24 -14 -37 -25 -29 -25 9 0 23 -13 33
-29 17 -29 17 -30 -5 -45 -32 -23 -65 -20 -94 9 -28 28 -54 83 -54 115 0 47
71 76 121 50 24 -13 24 -3 0 33 -13 21 -20 25 -24 14z"/>
<path d="M895 477 c9 -23 -86 -176 -110 -177 -12 0 14 -20 63 -50 46 -28 85
-50 87 -50 2 0 13 13 25 29 l20 30 -29 -15 c-31 -15 -67 -8 -88 18 -9 11 -8
21 7 43 25 38 45 39 45 3 -1 -16 0 -28 1 -28 1 0 16 23 34 51 27 45 28 49 8
35 -48 -34 -61 -15 -27 40 l21 34 29 -21 c22 -15 29 -28 29 -52 l0 -32 19 30
18 30 -41 26 c-104 64 -116 71 -111 56z"/>
<path d="M1056 364 c-27 -26 -19 -68 19 -115 42 -50 43 -82 3 -87 -30 -4 -58
28 -58 67 0 30 -16 18 -24 -19 -5 -21 -1 -28 29 -42 51 -25 100 -23 119 4 25
35 19 62 -24 111 -45 51 -50 73 -18 83 16 5 27 0 45 -20 13 -15 23 -35 24 -44
0 -14 2 -13 9 3 13 30 12 45 -4 45 -7 0 -19 7 -26 15 -16 20 -74 19 -94 -1z"/>
<path d="M1805 350 c-58 -18 -223 -40 -295 -40 l-35 0 3 -61 c5 -90 -5 -149
-27 -149 -12 0 -17 8 -16 28 0 33 -28 38 -33 5 -4 -25 31 -53 65 -53 45 0 63
33 63 114 0 86 6 106 30 106 14 0 20 -14 29 -75 6 -42 11 -90 11 -107 l0 -31
53 7 c119 15 117 14 116 55 -1 35 -1 35 -10 10 -10 -27 -46 -49 -78 -49 -17 0
-31 34 -31 76 0 22 27 16 46 -8 l16 -23 -6 25 c-3 14 -6 39 -6 55 l-1 30 -16
-23 c-22 -31 -43 -28 -43 7 0 16 -3 36 -6 45 -11 27 71 22 90 -6 l16 -22 0 27
c0 19 5 27 18 27 14 0 24 -20 45 -83 30 -91 33 -117 15 -117 -6 0 -9 -2 -6 -5
2 -3 29 3 58 13 40 14 49 20 34 24 -19 5 -48 70 -36 82 2 3 27 -11 54 -30 42
-31 53 -35 84 -29 l36 6 -51 36 c-52 36 -59 47 -41 58 16 10 12 62 -6 79 -20
20 -63 19 -139 -4z m95 -19 c21 -40 2 -81 -38 -81 -12 0 -35 77 -27 90 11 17
54 11 65 -9z"/>
<path d="M1220 341 c12 -8 12 -21 1 -88 -7 -43 -18 -90 -25 -104 l-13 -27 73
-12 c65 -11 76 -11 99 4 31 21 35 70 6 88 -19 12 -19 12 2 23 25 12 35 59 17
80 -6 8 -37 19 -68 25 -31 7 -68 14 -82 17 -19 3 -22 2 -10 -6z m105 -34 c23
-18 14 -63 -15 -72 -24 -8 -41 1 -35 18 2 7 6 24 9 40 7 30 14 33 41 14z m-15
-107 c24 -24 24 -29 4 -58 -22 -32 -60 -26 -57 8 8 73 19 84 53 50z"/>
</g>
</svg>
